<svg xmlns="http://www.w3.org/2000/svg" xmlns:xlink="http://www.w3.org/1999/xlink" width="895.751" height="760" viewBox="0 0 895.751 760">
  <defs>
    <clipPath id="clip-path">
      <path id="Path_220" data-name="Path 220" d="M345.027,244.434,336.884,208h-6.442l-38.648-2.034,7.459,30.172s4.3,11.712-18.7,12.807l-31.813,2.111v5.933l82.552,8.389C349.6,266.646,345.027,244.434,345.027,244.434Z" transform="translate(-248.739 -205.963)" fill="none"/>
    </clipPath>
    <linearGradient id="linear-gradient" x1="0.5" y1="1" x2="0.5" gradientUnits="objectBoundingBox">
      <stop offset="0" stop-color="#d9edfb"/>
      <stop offset="1" stop-color="#6fc2f1"/>
    </linearGradient>
  </defs>
  <g id="Group_138" data-name="Group 138" transform="translate(-29.815 -63.185)">
    <g id="OBJECTS" transform="translate(29.815 63.185)">
      <path id="Path_146" data-name="Path 146" d="M163.866,63.185V223.477L436.4,234.721V69.487Z" transform="translate(108.807 -63.185)" fill="#ffeac0"/>
      <path id="Path_147" data-name="Path 147" d="M925.566,386.636,298.487,340.794,29.815,438.136,167.169,452.6c-11.619,8.2-18.175,17.453-18.067,27.2.354,32.057,72.249,57.254,160.578,56.277,80.9-.893,147.484-23.433,157.852-51.847l180.849,19.045Z" transform="translate(-29.815 223.889)" fill="#a2cddd" opacity="0.2"/>
      <g id="Group_44" data-name="Group 44" transform="translate(111.115 312.799)">
        <g id="Group_41" data-name="Group 41" transform="translate(0 13.289)">
          <path id="Path_148" data-name="Path 148" d="M84.441,516.565l46.752-254.141,10.66.149-45.21,259.7-.077.036Z" transform="translate(-84.441 -183.241)" fill="#ffc49c"/>
          <path id="Path_149" data-name="Path 149" d="M155.557,260.523,113.388,514.278,90.44,524.244l45.21-259.7Z" transform="translate(-78.237 -185.207)" fill="#c68a61"/>
          <path id="Path_150" data-name="Path 150" d="M182.442,531.2,138.924,258.642l-26.932-.373,41.735,284.513.074.038Z" transform="translate(-55.951 -187.539)" fill="#c68a61"/>
          <path id="Path_151" data-name="Path 151" d="M108.233,258.216l36.825,278.451,12.554,6.168L115.878,258.322Z" transform="translate(-59.837 -187.592)" fill="#ffc49c"/>
          <path id="Path_152" data-name="Path 152" d="M166.93,481.844,213.683,227.7l10.66.148L179.132,487.561l-.076.034Z" transform="translate(0.86 -219.145)" fill="#ffc49c"/>
          <path id="Path_153" data-name="Path 153" d="M238.048,225.8l-42.17,253.753-22.949,9.97L218.14,229.818Z" transform="translate(7.064 -221.11)" fill="#c68a61"/>
          <path id="Path_154" data-name="Path 154" d="M264.932,496.479,221.413,223.922l-26.932-.373,41.734,284.515.074.036Z" transform="translate(29.351 -223.442)" fill="#c68a61"/>
          <path id="Path_155" data-name="Path 155" d="M190.723,223.5l36.825,278.452,12.553,6.17L198.367,223.6Z" transform="translate(25.464 -223.496)" fill="#ffc49c"/>
        </g>
        <g id="Group_42" data-name="Group 42" transform="translate(388.78 51.022)">
          <path id="Path_156" data-name="Path 156" d="M275.573,537.076,318.8,282.151h10.661L287.853,542.624l-.075.036Z" transform="translate(-275.573 -200.574)" fill="#ffc49c"/>
          <path id="Path_157" data-name="Path 157" d="M343.066,280.04,304.418,534.518l-22.808,10.29,41.606-260.474Z" transform="translate(-269.33 -202.758)" fill="#c68a61"/>
          <path id="Path_158" data-name="Path 158" d="M375.558,550.029l-47.293-272.1H301.332l45.674,284.088.075.036Z" transform="translate(-248.936 -204.94)" fill="#c68a61"/>
          <path id="Path_159" data-name="Path 159" d="M297.573,277.929,338.255,556.02l12.638,6L305.219,277.929Z" transform="translate(-252.823 -204.94)" fill="#ffc49c"/>
          <path id="Path_160" data-name="Path 160" d="M357.573,501.194,400.8,246.268h10.661L369.853,506.742l-.075.036Z" transform="translate(-190.777 -237.681)" fill="#ffc49c"/>
          <path id="Path_161" data-name="Path 161" d="M425.066,244.157,386.418,498.635l-22.808,10.29,41.606-260.474Z" transform="translate(-184.534 -239.864)" fill="#c68a61"/>
          <path id="Path_162" data-name="Path 162" d="M457.558,514.146l-47.293-272.1H383.332l45.674,284.088.075.036Z" transform="translate(-164.14 -242.046)" fill="#c68a61"/>
          <path id="Path_163" data-name="Path 163" d="M379.573,242.046l40.682,278.091,12.638,6L387.219,242.046Z" transform="translate(-168.027 -242.046)" fill="#ffc49c"/>
        </g>
        <g id="Group_43" data-name="Group 43" transform="translate(25.694)">
          <path id="Path_164" data-name="Path 164" d="M97.073,297.189l432.754,46.955,193.748-87.636V242.27L284.888,223.963,97.073,282.953Z" transform="translate(-97.073 -209.724)" fill="#a86558"/>
          <path id="Path_165" data-name="Path 165" d="M97.073,290.191l432.754,46.953,193.748-87.636L284.888,216.963Z" transform="translate(-97.073 -216.963)" fill="#ba9079"/>
        </g>
      </g>
      <g id="Group_45" data-name="Group 45" transform="translate(362.749 348.311)">
        <path id="Path_166" data-name="Path 166" d="M208.149,253.979l103.758,11.257,46.454-21.011-105.181-7.8Z" transform="translate(-208.149 -232.353)" fill="#ccc"/>
        <path id="Path_167" data-name="Path 167" d="M208.149,251.979l103.758,11.257,46.454-21.011-105.181-7.8Z" transform="translate(-208.149 -234.421)" fill="#fff6eb"/>
      </g>
      <g id="Group_55" data-name="Group 55" transform="translate(551.764 333.961)">
        <g id="Group_46" data-name="Group 46" transform="translate(75.268)">
          <path id="Path_168" data-name="Path 168" d="M340.694,253.514l-.088,0a2.878,2.878,0,0,1-2.53-1.269l1.711-1.1c.057.089.207.323.858.336l.065,0c5.533,0,22.285-13.787,24.328-16.7,6.808-8.523,11.956-7.721,13.854-6.979,1.959.761,3.354,2.524,3.248,4.1l-2.03-.136a2.765,2.765,0,0,0-1.955-2.071c-1.479-.582-5.563-1.113-11.493,6.3C364.6,238.947,347.394,253.512,340.694,253.514Z" transform="translate(-338.076 -227.367)"/>
        </g>
        <g id="Group_54" data-name="Group 54" transform="translate(0 18.842)">
          <g id="Group_52" data-name="Group 52">
            <g id="Group_47" data-name="Group 47" transform="translate(0 2.034)">
              <path id="Path_169" data-name="Path 169" d="M301.073,263.733V261.7l49.784-24.069,60.735,3.051v2.034L360.4,271.954Z" transform="translate(-301.073 -237.63)" fill="#020202"/>
            </g>
            <g id="Group_48" data-name="Group 48">
              <path id="Path_170" data-name="Path 170" d="M301.073,262.733l49.784-26.1,60.735,5.085L360.4,270.954Z" transform="translate(-301.073 -236.63)" fill="#272a2b"/>
            </g>
            <g id="Group_49" data-name="Group 49" transform="translate(46.2 3.348)">
              <path id="Path_171" data-name="Path 171" d="M323.786,241.857l7.268-3.581,7.833.779-6.454,3.493Z" transform="translate(-323.786 -238.276)" fill="#585d5e"/>
            </g>
            <g id="Group_50" data-name="Group 50" transform="translate(80.087 6.368)">
              <path id="Path_172" data-name="Path 172" d="M340.445,243.342l7.268-3.581,7.832.779-6.454,3.493Z" transform="translate(-340.445 -239.76)" fill="#585d5e"/>
            </g>
            <g id="Group_51" data-name="Group 51" transform="translate(62.225 4.579)">
              <path id="Path_173" data-name="Path 173" d="M345.563,241.232c0,1.3-3.112,2.351-6.951,2.351s-6.948-1.054-6.948-2.351,3.11-2.351,6.948-2.351S345.563,239.935,345.563,241.232Z" transform="translate(-331.664 -238.881)" fill="#585d5e"/>
            </g>
          </g>
          <g id="Group_53" data-name="Group 53" transform="translate(13.124 9.915)">
            <path id="Path_174" data-name="Path 174" d="M307.525,255.4l28-13.9,46.508,3.895-29.123,16.3Z" transform="translate(-307.525 -241.504)" fill="#585d5e"/>
          </g>
        </g>
      </g>
      <path id="Path_175" data-name="Path 175" d="M306.566,259.815c-1.355,0-4.746-.34-6.1.34-6.78,6.1,8.136,5.423,10.51,5.423,7.459-.338,14.578.34,22.035-.338s10.51-6.442,1.017-6.1Z" transform="translate(248.25 139.433)" fill="#272a2b"/>
      <path id="Path_176" data-name="Path 176" d="M264.407,269.384l26.944-13.921,27.637,3.613-23.257,16.05Z" transform="translate(212.775 135.649)" fill="#fff4c5"/>
      <g id="Group_59" data-name="Group 59" transform="translate(493.756 329.778)">
        <g id="Group_57" data-name="Group 57" transform="translate(40.063 0)">
          <g id="Group_56" data-name="Group 56">
            <path id="Path_177" data-name="Path 177" d="M370.507,229.091c-2.168-4.888-8.077-4.111-12.3-2.756-8.4,2.687-11.24,10.986-16.814,16.889-3.706,3.92-9.353,4.715-14.241,6.361a75.734,75.734,0,0,0-14.363,6.771c-4.072,2.414-7.723,4.825-12.2,6.464-2.406.881-6.511,1.505-8.285,3.529-.387.441,1.5,1.029,1.888.586,1.442-1.65,4.91-2.264,6.889-2.968a39.5,39.5,0,0,0,7.906-3.4c7.376-4.63,14.493-8.58,22.827-11.236,3.436-1.1,6.649-1.9,9.66-3.966,2.878-1.977,4.774-5.189,6.654-8.045a32.86,32.86,0,0,1,6.745-7.679c3.253-2.638,11.415-5.789,13.669-.71.246.553,2.191.661,1.967.159Z" transform="translate(-292.25 -225.31)" fill="#fff6eb"/>
          </g>
        </g>
        <g id="Group_58" data-name="Group 58" transform="translate(0 29.384)">
          <path id="Path_178" data-name="Path 178" d="M276.32,247.3c-2.034.677-4.068,4.068-3.728,6.442.677,5.763,9.493,7.8,14.239,8.474,8.476,1.017,41.359-2.034,25.766-16.95-9.833-9.493-24.071-4.746-34.58-.34Z" transform="translate(-272.555 -239.756)" fill="#fff6eb"/>
        </g>
      </g>
      <g id="Group_63" data-name="Group 63" transform="translate(414.027 129.414)">
        <path id="Path_179" data-name="Path 179" d="M248.739,255.952v-5.933l49.77-1.363,31.933-41.693h6.442l8.143,36.437s4.571,22.212-13.736,20.941Z" transform="translate(-217.453 -43.919)" fill="#999"/>
        <path id="Path_180" data-name="Path 180" d="M291.795,205.963l7.459,30.172s4.3,11.712-18.7,12.807l-31.813,2.111,84.393,7.968s9.515-1.867,4.43-19.834L330.443,208Z" transform="translate(-217.453 -44.953)" fill="#ccc"/>
        <path id="Path_181" data-name="Path 181" d="M248.739,255.952v-5.933l49.77-1.363,31.933-41.693h6.442l8.143,36.437s4.571,22.212-13.736,20.941Z" transform="translate(-217.453 -43.919)" fill="#999"/>
        <path id="Path_182" data-name="Path 182" d="M291.795,205.963l7.459,30.172s4.3,11.712-18.7,12.807l-31.813,2.111,84.393,7.968s9.515-1.867,4.43-19.834L330.443,208Z" transform="translate(-217.453 -44.953)" fill="#ccc"/>
        <path id="Path_183" data-name="Path 183" d="M248.739,255.952v-5.933l49.77-1.363,31.933-41.693h6.442l8.143,36.437s4.571,22.212-13.736,20.941Z" transform="translate(-217.453 -43.919)" fill="#999"/>
        <path id="Path_184" data-name="Path 184" d="M291.795,205.963l7.459,30.172s4.3,11.712-18.7,12.807l-31.813,2.111,84.393,7.968s9.515-1.867,4.43-19.834L330.443,208Z" transform="translate(-217.453 -44.953)" fill="#ccc"/>
        <path id="Path_185" data-name="Path 185" d="M248.739,255.952v-5.933l49.77-1.363,31.933-41.693h6.442l8.143,36.437s4.571,22.212-13.736,20.941Z" transform="translate(-217.453 -43.919)" fill="#999"/>
        <path id="Path_186" data-name="Path 186" d="M291.795,205.963l7.459,30.172s4.3,11.712-18.7,12.807l-31.813,2.111,84.393,7.968s9.515-1.867,4.43-19.834L330.443,208Z" transform="translate(-217.453 -44.953)" fill="#ccc"/>
        <path id="Path_187" data-name="Path 187" d="M248.739,255.952v-5.933l49.77-1.363,31.933-41.693h6.442l8.143,36.437s4.571,22.212-13.736,20.941Z" transform="translate(-217.453 -43.919)" fill="#999"/>
        <path id="Path_188" data-name="Path 188" d="M291.795,205.963l7.459,30.172s4.3,11.712-18.7,12.807l-31.813,2.111,84.393,7.968s9.515-1.867,4.43-19.834L330.443,208Z" transform="translate(-217.453 -44.953)" fill="#ccc"/>
        <path id="Path_189" data-name="Path 189" d="M248.739,255.952v-5.933l49.77-1.363,31.933-41.693h6.442l8.143,36.437s4.571,22.212-13.736,20.941Z" transform="translate(-217.453 -43.919)" fill="#999"/>
        <path id="Path_190" data-name="Path 190" d="M291.795,205.963l7.459,30.172s4.3,11.712-18.7,12.807l-31.813,2.111,84.393,7.968s9.515-1.867,4.43-19.834L330.443,208Z" transform="translate(-217.453 -44.953)" fill="#ccc"/>
        <path id="Path_191" data-name="Path 191" d="M248.739,255.952v-5.933l49.77-1.363,31.933-41.693h6.442l8.143,36.437s4.571,22.212-13.736,20.941Z" transform="translate(-217.453 -43.919)" fill="#999"/>
        <path id="Path_192" data-name="Path 192" d="M291.795,205.963l7.459,30.172s4.3,11.712-18.7,12.807l-31.813,2.111,84.393,7.968s9.515-1.867,4.43-19.834L330.443,208Z" transform="translate(-217.453 -44.953)" fill="#ccc"/>
        <path id="Path_193" data-name="Path 193" d="M248.739,255.952v-5.933l49.77-1.363,31.933-41.693h6.442l8.143,36.437s4.571,22.212-13.736,20.941Z" transform="translate(-217.453 -43.919)" fill="#999"/>
        <path id="Path_194" data-name="Path 194" d="M291.795,205.963l7.459,30.172s4.3,11.712-18.7,12.807l-31.813,2.111,84.393,7.968s9.515-1.867,4.43-19.834L330.443,208Z" transform="translate(-217.453 -44.953)" fill="#ccc"/>
        <path id="Path_195" data-name="Path 195" d="M248.739,255.952v-5.933l49.77-1.363,31.933-41.693h6.442l8.143,36.437s4.571,22.212-13.736,20.941Z" transform="translate(-217.453 -43.919)" fill="#999"/>
        <path id="Path_196" data-name="Path 196" d="M291.795,205.963l7.459,30.172s4.3,11.712-18.7,12.807l-31.813,2.111,84.393,7.968s9.515-1.867,4.43-19.834L330.443,208Z" transform="translate(-217.453 -44.953)" fill="#ccc"/>
        <path id="Path_197" data-name="Path 197" d="M248.739,255.952v-5.933l49.77-1.363,31.933-41.693h6.442l8.143,36.437s4.571,22.212-13.736,20.941Z" transform="translate(-217.453 -43.919)" fill="#999"/>
        <path id="Path_198" data-name="Path 198" d="M291.795,205.963l7.459,30.172s4.3,11.712-18.7,12.807l-31.813,2.111,84.393,7.968s9.515-1.867,4.43-19.834L330.443,208Z" transform="translate(-217.453 -44.953)" fill="#ccc"/>
        <path id="Path_199" data-name="Path 199" d="M248.739,255.952v-5.933l49.77-1.363,31.933-41.693h6.442l8.143,36.437s4.571,22.212-13.736,20.941Z" transform="translate(-217.453 -43.919)" fill="#999"/>
        <path id="Path_200" data-name="Path 200" d="M291.795,205.963l7.459,30.172s4.3,11.712-18.7,12.807l-31.813,2.111,84.393,7.968s9.515-1.867,4.43-19.834L330.443,208Z" transform="translate(-217.453 -44.953)" fill="#ccc"/>
        <path id="Path_201" data-name="Path 201" d="M248.739,255.952v-5.933l49.77-1.363,31.933-41.693h6.442l8.143,36.437s4.571,22.212-13.736,20.941Z" transform="translate(-217.453 -43.919)" fill="#999"/>
        <path id="Path_202" data-name="Path 202" d="M291.795,205.963l7.459,30.172s4.3,11.712-18.7,12.807l-31.813,2.111,84.393,7.968s9.515-1.867,4.43-19.834L330.443,208Z" transform="translate(-217.453 -44.953)" fill="#ccc"/>
        <path id="Path_203" data-name="Path 203" d="M248.739,255.952v-5.933l49.77-1.363,31.933-41.693h6.442l8.143,36.437s4.571,22.212-13.736,20.941Z" transform="translate(-217.453 -43.919)" fill="#999"/>
        <path id="Path_204" data-name="Path 204" d="M291.795,205.963l7.459,30.172s4.3,11.712-18.7,12.807l-31.813,2.111,84.393,7.968s9.515-1.867,4.43-19.834L330.443,208Z" transform="translate(-217.453 -44.953)" fill="#ccc"/>
        <path id="Path_205" data-name="Path 205" d="M248.739,255.952v-5.933l49.77-1.363,31.933-41.693h6.442l8.143,36.437s4.571,22.212-13.736,20.941Z" transform="translate(-217.453 -43.919)" fill="#999"/>
        <path id="Path_206" data-name="Path 206" d="M291.795,205.963l7.459,30.172s4.3,11.712-18.7,12.807l-31.813,2.111,84.393,7.968s9.515-1.867,4.43-19.834L330.443,208Z" transform="translate(-217.453 -44.953)" fill="#ccc"/>
        <path id="Path_207" data-name="Path 207" d="M248.739,255.952v-5.933l49.77-1.363,31.933-41.693h6.442l8.143,36.437s4.571,22.212-13.736,20.941Z" transform="translate(-217.453 -43.919)" fill="#999"/>
        <path id="Path_208" data-name="Path 208" d="M291.795,205.963l7.459,30.172s4.3,11.712-18.7,12.807l-31.813,2.111,84.393,7.968s9.515-1.867,4.43-19.834L330.443,208Z" transform="translate(-217.453 -44.953)" fill="#ccc"/>
        <path id="Path_209" data-name="Path 209" d="M248.739,255.952v-5.933l49.77-1.363,31.933-41.693h6.442l8.143,36.437s4.571,22.212-13.736,20.941Z" transform="translate(-217.453 -43.919)" fill="#999"/>
        <path id="Path_210" data-name="Path 210" d="M291.795,205.963l7.459,30.172s4.3,11.712-18.7,12.807l-31.813,2.111,84.393,7.968s9.515-1.867,4.43-19.834L330.443,208Z" transform="translate(-217.453 -44.953)" fill="#ccc"/>
        <path id="Path_211" data-name="Path 211" d="M248.739,255.952v-5.933l49.77-1.363,31.933-41.693h6.442l8.143,36.437s4.571,22.212-13.736,20.941Z" transform="translate(-217.453 -43.919)" fill="#999"/>
        <path id="Path_212" data-name="Path 212" d="M291.795,205.963l7.459,30.172s4.3,11.712-18.7,12.807l-31.813,2.111,84.393,7.968s9.515-1.867,4.43-19.834L330.443,208Z" transform="translate(-217.453 -44.953)" fill="#ccc"/>
        <path id="Path_213" data-name="Path 213" d="M248.739,255.952v-5.933l49.77-1.363,31.933-41.693h6.442l8.143,36.437s4.571,22.212-13.736,20.941Z" transform="translate(-217.453 -43.919)" fill="#999"/>
        <path id="Path_214" data-name="Path 214" d="M291.795,205.963l7.459,30.172s4.3,11.712-18.7,12.807l-31.813,2.111,84.393,7.968s9.515-1.867,4.43-19.834L330.443,208Z" transform="translate(-217.453 -44.953)" fill="#ccc"/>
        <path id="Path_215" data-name="Path 215" d="M248.739,255.952v-5.933l49.77-1.363,31.933-41.693h6.442l8.143,36.437s4.571,22.212-13.736,20.941Z" transform="translate(-217.453 -43.919)" fill="#999"/>
        <path id="Path_216" data-name="Path 216" d="M291.795,205.963l7.459,30.172s4.3,11.712-18.7,12.807l-31.813,2.111,84.393,7.968s9.515-1.867,4.43-19.834L330.443,208Z" transform="translate(-217.453 -44.953)" fill="#ccc"/>
        <path id="Path_217" data-name="Path 217" d="M248.739,255.952v-5.933l49.77-1.363,31.933-41.693h6.442l8.143,36.437s4.571,22.212-13.736,20.941Z" transform="translate(-217.453 -43.919)" fill="#999"/>
        <path id="Path_218" data-name="Path 218" d="M291.795,205.963l7.459,30.172s4.3,11.712-18.7,12.807l-31.813,2.111,84.393,7.968s9.515-1.867,4.43-19.834L330.443,208Z" transform="translate(-217.453 -44.953)" fill="#ccc"/>
        <g id="Group_61" data-name="Group 61" transform="translate(31.286 161.01)">
          <g id="Group_60" data-name="Group 60" clip-path="url(#clip-path)">
            <path id="Path_219" data-name="Path 219" d="M268.073,217.059l56.277,3.567-2.493-11.188-53.784-3.474Z" transform="translate(-228.746 -205.963)" fill="#dbeef5" style="mix-blend-mode: multiply;isolation: isolate"/>
          </g>
        </g>
        <path id="Path_221" data-name="Path 221" d="M415.395,289.219a10.15,10.15,0,0,1-10.636,9.676L245.22,289.323a9.744,9.744,0,0,1-8.846-10.478l7.685-142.313c.3-5.506,4.756-9.859,9.967-9.721l160.327,4.245a9.863,9.863,0,0,1,9.509,10.606Z" transform="translate(-230.256 -126.807)" fill="#999"/>
        <path id="Path_222" data-name="Path 222" d="M420.132,141.662a9.863,9.863,0,0,0-9.509-10.606L250.3,126.811c-5.211-.138-9.668,4.215-9.967,9.721l-6.263,115.982,179.141,9.839Z" transform="translate(-232.628 -126.807)"/>
        <path id="Path_223" data-name="Path 223" d="M236.17,250.445l6.043-115.762a6.023,6.023,0,0,1,5.663-5.874l160.462,4.247a5.587,5.587,0,0,1,4,1.81,6.054,6.054,0,0,1,1.556,4.5L406.3,260.023Z" transform="translate(-230.451 -124.739)" fill="url(#linear-gradient)"/>
        <path id="Path_224" data-name="Path 224" d="M234.8,188.607l-1.422,26.331a9.744,9.744,0,0,0,8.846,10.478l159.538,9.572a10.15,10.15,0,0,0,10.636-9.676l1.542-26.866Z" transform="translate(-233.358 -62.901)" fill="#ccc"/>
        <g id="Group_62" data-name="Group 62" transform="translate(18.746 20.839)" opacity="0.5">
          <path id="Path_225" data-name="Path 225" d="M348.151,190.675,280.34,186.8l2.717-49.743,67.812,3.879Z" transform="translate(-203.521 -137.052)" fill="#e8e8e8"/>
          <path id="Path_226" data-name="Path 226" d="M281.676,182.859l2.429-44.427,62.66,3.586-2.427,44.427Z" transform="translate(-202.139 -135.626)" fill="#c6c6c6"/>
          <path id="Path_227" data-name="Path 227" d="M242.574,205.448l70.384,4.028,3.293-60.273-70.383-4.029Z" transform="translate(-242.574 -128.653)" fill="#e8e8e8"/>
          <path id="Path_228" data-name="Path 228" d="M243.913,201.511l3-54.957,65.235,3.732-3.005,54.957Z" transform="translate(-241.19 -127.227)" fill="#c6c6c6"/>
          <path id="Path_229" data-name="Path 229" d="M257.6,186.607a7.1,7.1,0,1,1-6.68-7.713A7.182,7.182,0,0,1,257.6,186.607Z" transform="translate(-241.689 -93.796)" fill="#71a6db"/>
          <path id="Path_230" data-name="Path 230" d="M266.584,187.122a7.1,7.1,0,1,1-6.682-7.715A7.184,7.184,0,0,1,266.584,187.122Z" transform="translate(-232.404 -93.265)" fill="#71a6db"/>
          <path id="Path_231" data-name="Path 231" d="M275.566,187.636a7.1,7.1,0,1,1-6.682-7.715A7.188,7.188,0,0,1,275.566,187.636Z" transform="translate(-223.118 -92.734)" fill="#71a6db"/>
          <path id="Path_232" data-name="Path 232" d="M284.548,188.149a7.1,7.1,0,1,1-6.688-7.713A7.192,7.192,0,0,1,284.548,188.149Z" transform="translate(-213.831 -92.202)" fill="#71a6db"/>
          <path id="Path_233" data-name="Path 233" d="M293.523,188.664a7.1,7.1,0,1,1-6.68-7.715A7.186,7.186,0,0,1,293.523,188.664Z" transform="translate(-204.544 -91.671)" fill="#71a6db"/>
          <path id="Path_234" data-name="Path 234" d="M302.5,189.178a7.094,7.094,0,1,1-6.68-7.715A7.185,7.185,0,0,1,302.5,189.178Z" transform="translate(-195.258 -91.139)" fill="#71a6db"/>
          <path id="Path_235" data-name="Path 235" d="M311.486,189.69a7.1,7.1,0,1,1-6.682-7.713A7.186,7.186,0,0,1,311.486,189.69Z" transform="translate(-185.975 -90.608)" fill="#71a6db"/>
          <path id="Path_236" data-name="Path 236" d="M320.465,190.2a7.1,7.1,0,1,1-6.684-7.713A7.188,7.188,0,0,1,320.465,190.2Z" transform="translate(-176.688 -90.076)" fill="#71a6db"/>
        </g>
      </g>
      <g id="Group_105" data-name="Group 105" transform="translate(201.491 96.13)">
        <g id="Group_64" data-name="Group 64" transform="translate(208.712 567.688)">
          <path id="Path_237" data-name="Path 237" d="M233.267,414.988c-1.271,1.78-2.288,5.848-1.526,8.391,2.034,5.594,9.408,4.831,13.73,3.814,12.967-3.56,25.935-8.9,38.139-14.239,8.391-3.814,16.781-6.611,25.172-10.425,3.305-1.271,9.153-3.56,9.153-8.136,0-3.814-4.322-5.085-7.119-4.831Z" transform="translate(-231.479 -389.531)" fill="#848484"/>
        </g>
        <g id="Group_65" data-name="Group 65" transform="translate(208.22 541.811)">
          <path id="Path_238" data-name="Path 238" d="M272.419,397.632c0-7.119,5.594-16.018-3.56-18.561-7.882-2.034-27.46-5.339-30.766,4.068-3.814,10.425-8.391,46.276-6.357,49.835,2.288,4.068,11.95,1.78,15.764,1.271,12.2-1.526,65.091-22.629,67.125-26.443,2.034-4.068-3.051-19.578-19.324-15-6.647,1.869-16.527,6.611-22.629,4.831Z" transform="translate(-231.237 -376.809)" fill="#473f3f"/>
        </g>
        <g id="Group_66" data-name="Group 66" transform="translate(222.197 530.088)">
          <path id="Path_239" data-name="Path 239" d="M240.651,371.3c.254,6.865-.509,15.51-2.543,21.867,5.085,3.305,13.222,2.8,18.561.763-1.271-7.374.763-16.018,1.271-22.884Z" transform="translate(-238.108 -371.046)" fill="#c96"/>
        </g>
        <g id="Group_67" data-name="Group 67" transform="translate(160.411)">
          <path id="Path_240" data-name="Path 240" d="M207.733,130.483c6.782-5.763,13.561-11.017,22.037-14.747,7.288-3.051,18.644-7.457,26.443-4.068,10.17,4.408,5.594,15.087.846,21.529-6.611,8.645-35.766,31.866-42.376,34.748Z" transform="translate(-207.733 -110.444)" fill="#85c178"/>
        </g>
        <g id="Group_68" data-name="Group 68" transform="translate(168.887 76.994)">
          <path id="Path_241" data-name="Path 241" d="M216.308,148.3c1.017,2.2,1.355,4.577,3.22,6.611,2.711,3.222,5.425,4.068,8.814,5.765,4.577,2.2,1.526,5.931-2.543,6.611-3.729.509-7.628-1.188-10.339-3.731a12.046,12.046,0,0,1-3.56-5.085Z" transform="translate(-211.9 -148.296)" fill="#aa794d"/>
        </g>
        <g id="Group_69" data-name="Group 69" transform="translate(73.285 34.715)">
          <path id="Path_242" data-name="Path 242" d="M246.264,134.7a103.406,103.406,0,0,1,.34,19.155c-.509,6.611-.34,14.07-1.865,20.341-3.22-.34-6.611-.169-9.831-.34-1.526-.169-4.577-1.017-5.765-.169-1.017.677-1.017,2.374-1.355,3.56-2.034,6.611-4.916,14.747-8.816,20.51-12.221-3.055-25.436-3.381-37.726-6.409-2.646,10.15-7.573,19.1-16.346,25.225l46.107,15.935c2.372-4.408,5.085-11.188,7.8-16.612,1.357-2.711,2.374-7.119,5.425-7.459,1.694,0,6.44,3.731,7.8,4.408,3.391,2.034,6.442,4.746,9.493,6.1,4.406,2.034,4.406,1.694,8.474-1.694,4.021-4.021,11.775-12.821,11.775-12.821a7.718,7.718,0,0,0,3.116,1.011c-1.017-4.068-.653-9.21-.653-13.616,0-13.9,4.068-27.46,3.391-41.7a91.126,91.126,0,0,0-3.159-22.617c-1.58.714-3.074,1.446-4.3,1.936C255.586,131.313,250.841,132.667,246.264,134.7Z" transform="translate(-164.9 -127.511)" fill="#c96"/>
        </g>
        <g id="Group_70" data-name="Group 70" transform="translate(169.79 65.947)">
          <path id="Path_243" data-name="Path 243" d="M215.1,148.226c-.232,2.9-1.027,5.205-1.768,5.146s-1.157-2.463-.923-5.362,1.027-5.2,1.772-5.144S215.334,145.328,215.1,148.226Z" transform="translate(-212.344 -142.865)"/>
        </g>
        <g id="Group_71" data-name="Group 71" transform="translate(155.834 101.574)">
          <path id="Path_244" data-name="Path 244" d="M205.483,160.38s.258.212.681.6l.747.716a7.087,7.087,0,0,0,1,.836c.372.283.769.584,1.159.919l1.4.95c.93.7,2.042,1.3,3.082,1.985,1.094.608,2.152,1.3,3.2,1.841.525.275,1.015.574,1.489.85.486.24.94.492,1.359.726.834.486,1.552.842,2.05,1.127s.783.464.783.464-.329-.014-.9-.077a14.005,14.005,0,0,1-2.351-.423,19.069,19.069,0,0,1-3.2-1.052,29.2,29.2,0,0,1-3.474-1.715l-1.635-1.113a11.19,11.19,0,0,1-1.5-1.206c-.472-.415-.913-.818-1.312-1.239-.389-.45-.728-.893-1.037-1.294a8.3,8.3,0,0,1-1.184-2.063C205.6,160.691,205.483,160.38,205.483,160.38Z" transform="translate(-205.483 -160.38)" fill="#915e30"/>
        </g>
        <g id="Group_72" data-name="Group 72" transform="translate(87.819 6.358)">
          <path id="Path_245" data-name="Path 245" d="M204.635,116.064c-16.952,2.714-33.563,15.3-32.546,33.943,1.092,16.852,6.584,37.273,1.768,55.759,12.29,3.029,25.506,3.354,37.726,6.409,3.9-5.763,6.782-13.9,8.816-20.51.338-1.186.338-2.882,1.355-3.56,1.188-.848,4.239,0,5.765.169,3.22.171,6.611,0,9.831.34,1.526-6.271,1.357-13.73,1.865-20.341a103.406,103.406,0,0,0-.34-19.155c4.577-2.034,9.322-3.389,13.9-5.254,1.227-.49,2.72-1.223,4.3-1.936a51.049,51.049,0,0,0-8.706-17.727C237.181,109.284,220.908,113.692,204.635,116.064Z" transform="translate(-172.045 -113.57)" fill="#5e303c"/>
        </g>
        <g id="Group_73" data-name="Group 73" transform="translate(130.813 73.966)">
          <path id="Path_246" data-name="Path 246" d="M208.881,158.82c0-4.916-.508-13.222-7.628-11.865-10,1.863-11.188,18.476-.848,20.341,2.2.509,3.9-.171,5.933-.679Z" transform="translate(-193.182 -146.807)" fill="#c96"/>
        </g>
        <g id="Group_74" data-name="Group 74" transform="translate(87.336 0.613)">
          <path id="Path_247" data-name="Path 247" d="M255.308,130.68c-6.357-11.188-15.51-18.053-28.477-19.578-10.679-1.271-22.629,1.017-32.8,4.322-12.713,4.322-20.6,12.713-21.612,26.443-.49,7.048-1.021,14.277-.128,21.256,5.567-3.541,16.181-5.708,20.469-2.441,6.43,4.481,8.218,17.011,6.765,26.289,9.623-1.261,19.007-4.965,27.814-8.49a130.773,130.773,0,0,0,29.494-15.51c3.305-2.034,4.068-2.8,4.068-6.865C260.9,153.31,258.613,136.274,255.308,130.68Z" transform="translate(-171.808 -110.746)" fill="#ceffc2"/>
        </g>
        <g id="Group_76" data-name="Group 76" transform="translate(89.98 70.102)">
          <g id="Group_75" data-name="Group 75">
            <path id="Path_248" data-name="Path 248" d="M198.563,144.922a57.62,57.62,0,0,1-9.306,1.088c-4.109,0-8.216.252-12.325-.336a32.243,32.243,0,0,1-3.189-.665c-.012,2.006-.149,3.751-.635,3.993v.763c5.34,3.051,14.493,2.543,20.6,2.288,1.5-.067,2.99-.214,4.477-.409a41.228,41.228,0,0,0,.462-6.737Z" transform="translate(-173.108 -144.908)" fill="#85c178"/>
          </g>
        </g>
        <g id="Group_77" data-name="Group 77" transform="translate(212.281 371.26)">
          <path id="Path_249" data-name="Path 249" d="M251.54,330.933c-1.694,13.222-5.085,26.443-7.8,39.325-3.728,17.29-3.728,34.919-5.763,52.209-1.017,9.831-1.357,20.681-4.748,29.834,27.289,13.22,48.481-.34,48.481-.34s4.406-17.292-.584-20.184c-8.816-3.729,5.669-19.822,7.024-25.585,2.376-8.476-4.914-12.713-3.218-21.527,4.406-21.018,12.713-32.714,16.781-54.072,1.692-8.474,5.423-23.392-2.376-29.494-6.778-5.423-18.645-6.78-26.781-8.136" transform="translate(-233.233 -292.963)" fill="#355087"/>
        </g>
        <g id="Group_78" data-name="Group 78" transform="translate(230.587 411.263)">
          <path id="Path_250" data-name="Path 250" d="M263.933,312.629s-.183.325-.521.871a9.655,9.655,0,0,1-2,1.875,16.746,16.746,0,0,1-3.371,1.831,23.674,23.674,0,0,1-4.176,1.3c-.73.144-1.465.273-2.193.356a20.566,20.566,0,0,1-2.148.159,17.038,17.038,0,0,1-3.818-.3,9.707,9.707,0,0,1-1.487-.39,7.407,7.407,0,0,1-1.1-.439c-.582-.315-.889-.506-.889-.506l1,.118c.3.059.7.024,1.125.061s.921-.014,1.444-.006c1.058-.037,2.278-.155,3.584-.319,1.3-.2,2.689-.395,4.056-.716.692-.118,1.369-.305,2.042-.458.655-.207,1.336-.315,1.955-.535a35.619,35.619,0,0,0,3.4-1.159l1.316-.592c.37-.21.692-.389.962-.541C263.626,312.841,263.933,312.629,263.933,312.629Z" transform="translate(-242.233 -312.629)" fill="#273552"/>
        </g>
        <g id="Group_86" data-name="Group 86" transform="translate(106.516 350.919)">
          <g id="Group_79" data-name="Group 79" transform="translate(0.492 196.428)">
            <path id="Path_251" data-name="Path 251" d="M183.267,404.988c-1.271,1.78-2.288,5.848-1.526,8.391,2.034,5.594,9.408,4.831,13.73,3.814,12.967-3.56,25.935-8.9,38.139-14.239,8.391-3.814,16.781-6.611,25.172-10.425,3.305-1.271,9.153-3.56,9.153-8.136,0-3.814-4.322-5.085-7.119-4.831Z" transform="translate(-181.479 -379.531)" fill="#757575"/>
          </g>
          <g id="Group_80" data-name="Group 80" transform="translate(0 170.551)">
            <path id="Path_252" data-name="Path 252" d="M222.419,387.632c0-7.119,5.594-16.019-3.56-18.561-7.882-2.034-27.46-5.34-30.766,4.068-3.814,10.425-8.391,46.276-6.357,49.835,2.288,4.068,11.95,1.78,15.764,1.271,12.2-1.526,65.091-22.629,67.125-26.443,2.034-4.068-3.051-19.578-19.324-15-6.647,1.869-16.527,6.611-22.629,4.831Z" transform="translate(-181.237 -366.809)" fill="#383535"/>
          </g>
          <g id="Group_81" data-name="Group 81" transform="translate(13.976 158.828)">
            <path id="Path_253" data-name="Path 253" d="M190.651,361.3c.254,6.865-.509,15.51-2.543,21.867,5.085,3.305,13.222,2.8,18.561.763-1.271-7.374.763-16.019,1.271-22.884Z" transform="translate(-188.108 -361.046)" fill="#bd9369"/>
          </g>
          <g id="Group_82" data-name="Group 82" transform="translate(4.06)">
            <path id="Path_254" data-name="Path 254" d="M201.54,320.933c-1.694,13.222-5.085,26.443-7.8,39.325-3.729,17.29-3.729,34.919-5.763,52.209-1.017,9.831-1.357,20.681-4.748,29.834,27.291,13.22,48.479-.34,48.479-.34s4.408-17.292-.584-20.184c-8.814-3.729,5.671-19.822,7.026-25.585,2.374-8.476-4.914-12.713-3.22-21.527,4.408-21.018,12.713-32.714,16.781-54.072,1.694-8.474,5.423-23.392-2.374-29.494-6.78-5.423-18.647-6.78-26.783-8.136" transform="translate(-183.233 -282.963)" fill="#273552"/>
          </g>
          <g id="Group_83" data-name="Group 83" transform="translate(25.089 101.377)">
            <path id="Path_255" data-name="Path 255" d="M214.825,332.8l-.71.742a19.9,19.9,0,0,1-1.987,1.8,24.783,24.783,0,0,1-3.181,2.154,21.248,21.248,0,0,1-1.9,1.027c-.667.305-1.345.614-2.022.928-1.391.515-2.776,1.058-4.117,1.412-1.33.4-2.587.681-3.674.9a32.157,32.157,0,0,1-3.667.551,36.568,36.568,0,0,1,3.309-1.662c2.012-.911,4.707-2,7.376-3.078,1.322-.559,2.657-1.1,3.875-1.662.606-.291,1.235-.509,1.772-.8s1.082-.515,1.578-.736c.993-.445,1.808-.913,2.4-1.168S214.825,332.8,214.825,332.8Z" transform="translate(-193.571 -332.802)" fill="#161e2b"/>
          </g>
          <g id="Group_84" data-name="Group 84" transform="translate(12.742 112.306)">
            <path id="Path_256" data-name="Path 256" d="M220.9,338.175s-.254.271-.728.779a12.558,12.558,0,0,1-2.311,1.959,20.609,20.609,0,0,1-4.211,2.156,42.883,42.883,0,0,1-5.874,1.7c-2.17.509-4.526.986-6.914,1.717a18.09,18.09,0,0,0-6.753,3.427,3.63,3.63,0,0,0-1,1.261.368.368,0,0,0,.022.285,1.257,1.257,0,0,0,.462.356,3.866,3.866,0,0,0,.82.323c.122.031.374.11.393.106l.535.079,2.156.315a82.26,82.26,0,0,0,8.7.417c1.487.057,3.008.214,4.5.317a43.057,43.057,0,0,1,4.44.437,8.69,8.69,0,0,1,2.331.753,3.418,3.418,0,0,1,1.841,2.156,3.25,3.25,0,0,1,.1.736l-.02.352-.012.175-.008.085,0,.045c-.016.077.035-.114-.041.187l-.175.5c-.112.22-.25.46-.389.675a6.855,6.855,0,0,1-1.816,1.621,26.223,26.223,0,0,1-7.776,2.778c-1.249.254-2.447.537-3.637.749l-3.47.547a39.419,39.419,0,0,1-6.123.271q-.683-.012-1.322-.029a7.145,7.145,0,0,1-1.239-.212,10.292,10.292,0,0,1-2.085-.624c-1.237-.456-2.13-.934-2.793-1.139l-1-.37s.36.094,1.033.264c.683.144,1.652.506,2.876.866a9.733,9.733,0,0,0,2.061.449,6.764,6.764,0,0,0,1.17.11c.417-.024.85-.049,1.3-.071a55.137,55.137,0,0,0,5.958-.649c1.072-.22,2.191-.451,3.348-.689,1.155-.262,2.355-.606,3.588-.917a29.145,29.145,0,0,0,7.16-2.819,5.233,5.233,0,0,0,1.3-1.16,1.5,1.5,0,0,1,.155-.234l.169-.5c-.069.275-.02.063-.035.118v-.069l0-.09.01-.183c.02-.124-.043-.207-.047-.317-.134-.759-1.426-1.286-2.736-1.5-1.355-.232-2.738-.24-4.322-.35-1.45-.077-2.88-.2-4.353-.24a84.419,84.419,0,0,1-8.932-.58l-2.15-.346-.535-.087a5.765,5.765,0,0,1-.647-.177,5.5,5.5,0,0,1-1.163-.486,2.939,2.939,0,0,1-1.131-1.029,2.223,2.223,0,0,1-.169-1.761,5.078,5.078,0,0,1,1.538-2.028,13.934,13.934,0,0,1,1.768-1.292,20.161,20.161,0,0,1,1.92-.976,28.538,28.538,0,0,1,3.83-1.261c2.516-.641,4.906-1.009,7.083-1.412s4.154-.793,5.864-1.3a20.208,20.208,0,0,0,4.245-1.778,14.464,14.464,0,0,0,2.443-1.7Z" transform="translate(-187.501 -338.175)" fill="#161e2b"/>
          </g>
          <g id="Group_85" data-name="Group 85" transform="translate(10.718 139.832)">
            <path id="Path_257" data-name="Path 257" d="M186.506,359s.614.108,1.674.348c.531.106,1.182.169,1.91.275s1.585.112,2.486.216c1.829.081,3.954.15,6.23.051,1.139-.016,2.311-.12,3.5-.212,1.194-.055,2.388-.269,3.592-.395,1.186-.218,2.4-.327,3.545-.624.58-.124,1.155-.25,1.725-.37.557-.157,1.109-.309,1.65-.464,1.1-.269,2.087-.71,3.076-1.027.919-.441,1.841-.793,2.614-1.245a17.234,17.234,0,0,0,2.059-1.328,9.47,9.47,0,0,0,1.442-1.249c.7-.8,1.135-1.263,1.135-1.263s-.275.545-.826,1.511a10.027,10.027,0,0,1-1.241,1.56,11.862,11.862,0,0,1-1.932,1.749,22.946,22.946,0,0,1-2.614,1.641,30.916,30.916,0,0,1-6.656,2.4c-1.2.332-2.455.476-3.694.722-1.253.108-2.5.305-3.739.336a35.045,35.045,0,0,1-3.629.043c-1.178.012-2.313-.142-3.385-.226-1.072-.116-2.079-.3-3-.46a28.678,28.678,0,0,1-4.369-1.269C187.063,359.272,186.506,359,186.506,359Z" transform="translate(-186.506 -351.707)" fill="#161e2b"/>
          </g>
        </g>
        <g id="Group_87" data-name="Group 87" transform="translate(134.691 349.278)">
          <path id="Path_258" data-name="Path 258" d="M309.633,339.735c-12.884,7.8-32.548,9.491-47.126,11.525s-36.951,5.425-50.513-2.711c-17.967-11.527-22.035-38.648-10.17-55.6,13.222-18.647,40.682-8.478,58.989-3.731,14.578,3.729,63.36,16.61,73.531,20.339" transform="translate(-195.089 -282.156)" fill="#355087"/>
        </g>
        <g id="Group_88" data-name="Group 88" transform="translate(172.955 246.055)">
          <path id="Path_259" data-name="Path 259" d="M220.68,233.892c9.833,3.728,20,5.763,30.511,4.068,6.1-1.017,16.612-7.459,21.7-6.442,2.711.677,19.326,15.256,18.984,17.29l.342.34c-7.121,3.389-15.26,5.085-22.717,8.136-5.423,2.034-14.576,6.1-20.679,4.406-3.391-1.017-4.068-4.746-6.782-6.78-3.051-2.034-6.78-1.694-10.17-2.374-6.1-1.017-11.865-2.711-17.967-3.389Z" transform="translate(-213.9 -231.41)" fill="#aa794d"/>
        </g>
        <g id="Group_89" data-name="Group 89" transform="translate(147.529 238.027)">
          <path id="Path_260" data-name="Path 260" d="M230.894,264.754c1.017-10.17,5.763-22.035,8.476-31.866h0c-10.17,0-20.341-.34-29.494-5.425-3.051,7.119-3.051,14.916-4.748,22.035-.338,2.714-3.389,13.561-3.729,13.561Z" transform="translate(-201.4 -227.463)" fill="#e8b349"/>
        </g>
        <g id="Group_90" data-name="Group 90" transform="translate(229.57 248.092)">
          <path id="Path_261" data-name="Path 261" d="M241.733,249.975c12.2-2.543,23.9-7.374,36.105-10.933,13.222-3.56,28.477-8.9,42.208-5.594,5.594,1.271,11.95,4.831,16.273,8.391,2.034,1.78,10.933,14.747,2.543,11.95,2.543,2.8-4.577,3.814-6.611,3.305-2.034,5.594-13.222-2.543-16.018-4.068-6.865-3.305-9.408,0-15.51,3.305-5.594,3.051-10.679,6.357-16.781,8.136-7.119,2.288-9.916-1.017-16.273-2.543-8.391-2.034-17.29,4.068-24.155,3.814Z" transform="translate(-241.733 -232.411)" fill="#c96"/>
        </g>
        <g id="Group_91" data-name="Group 91" transform="translate(0 120.618)">
          <path id="Path_262" data-name="Path 262" d="M129.1,302.067c0-16.273-.509-32.037,0-48.31.509-18.307-2.034-49.835,10.679-64.583,13.222-14.239,45.259-20.341,64.074-19.324,21.358,1.017,44.75,8.645,63.566,18.307,9.662,5.594,19.324,12.2,20.849,23.9,1.526,12.2-3.56,26.443-4.577,38.139-1.526,12.713-3.051,24.918-.508,37.122,2.034,11.188,2.034,23.392,1.017,35.088-1.017,12.713-2.034,24.918-2.034,38.139,0,5.594-1.017,12.713.509,17.8,2.543,6.611,7.628,8.645,12.713,12.713,6.1,5.085,5.594,5.594,1.017,13.222-4.068,6.1-8.645,12.2-14.747,16.273-8.136,7.119-20.85,9.662-31.529,8.136-9.662-1.526-26.952-7.628-33.563-15.256Z" transform="translate(-128.872 -169.743)" fill="#ffca55"/>
        </g>
        <g id="Group_92" data-name="Group 92" transform="translate(11.953 174.97)">
          <path id="Path_263" data-name="Path 263" d="M138.785,196.463s.039,1.282.106,3.523c.02,1.123.047,2.484.075,4.046.047,1.56.069,3.322-.041,5.246-.155,3.846-.256,8.354-.616,13.138-.338,4.786-.7,9.89-1.06,15-.146,2.547-.293,5.093-.435,7.6-.187,2.508-.185,4.973-.244,7.361.006,2.386-.23,4.7-.083,6.887.071,2.189.138,4.259.2,6.169a50.219,50.219,0,0,0,.366,5.205c.157,1.55.291,2.9.4,4.013.2,2.238.311,3.517.311,3.517s-.256-1.255-.7-3.452c-.212-1.1-.468-2.445-.763-3.983-.148-.771-.305-1.593-.472-2.457s-.181-1.792-.285-2.75c-.167-1.922-.35-4.007-.541-6.21-.266-2.2-.175-4.538-.226-6.95.01-2.41-.112-4.91.073-7.433.122-2.526.246-5.093.37-7.66.415-5.11.824-10.227,1.308-15,.24-2.386.472-4.693.692-6.879.2-2.187.391-4.251.565-6.159.386-3.814.527-7.026.712-9.257S138.785,196.463,138.785,196.463Z" transform="translate(-134.748 -196.463)" fill="#c93"/>
        </g>
        <g id="Group_93" data-name="Group 93" transform="translate(111.059 154.629)">
          <path id="Path_264" data-name="Path 264" d="M228.077,186.463c-9.153.34-23.392,14.239-29.155,20.341-11.188,11.865-14.578,27.46-15.256,43.733-.679,20.341.338,41.7,4.068,61.363,3.051,17.967,6.44,40,28.138,42.716,16.273,2.034,86.789-29.157,89.5-31.528,7.459-5.425,5.425-22.715-1.017-29.157-9.831,2.665-30.269,9.493-44.41,13.222-1.017-10.171-5.085-4.406-11.527-.677,3.051-11.527-3.391-7.8-11.188-5.425-2.374-6.44-2.374-77.3-2.711-93.568,0-6.44-.34-16.61-6.1-21.018Z" transform="translate(-183.47 -186.463)" fill="#ffde80"/>
        </g>
        <g id="Group_94" data-name="Group 94" transform="translate(111.884 2.53)">
          <path id="Path_265" data-name="Path 265" d="M198.291,113.252c.13,1.218-2.992,2.545-6.971,2.968s-7.313-.222-7.441-1.438,2.994-2.543,6.973-2.964S198.163,112.038,198.291,113.252Z" transform="translate(-183.876 -111.688)" fill="#85c178"/>
        </g>
        <g id="Group_95" data-name="Group 95" transform="translate(168.72 56.477)">
          <path id="Path_266" data-name="Path 266" d="M211.818,140.782a2.688,2.688,0,0,1,.024-.311,1.878,1.878,0,0,1,.207-.712,2.609,2.609,0,0,1,.7-.838,3.419,3.419,0,0,1,1.058-.578l.594-.108a2.04,2.04,0,0,1,.578,0,2.647,2.647,0,0,1,.991.25,2.449,2.449,0,0,1,.856.628,5.479,5.479,0,0,1-.86.539,8.481,8.481,0,0,1-1.574.641,9.292,9.292,0,0,1-1.564.332c-.254.022-.519.124-.7.134A3.039,3.039,0,0,1,211.818,140.782Z" transform="translate(-211.818 -138.209)" fill="#3f2215"/>
        </g>
        <g id="Group_96" data-name="Group 96" transform="translate(233.309 472.638)">
          <path id="Path_267" data-name="Path 267" d="M264.825,342.8s-.258.271-.712.742a19.611,19.611,0,0,1-1.985,1.8,24.906,24.906,0,0,1-3.179,2.154c-.616.332-1.222.744-1.9,1.027-.665.305-1.342.614-2.02.927-1.391.515-2.776,1.058-4.117,1.412-1.33.4-2.587.681-3.674.895a32.172,32.172,0,0,1-3.667.551,36.552,36.552,0,0,1,3.309-1.662c2.012-.911,4.707-2,7.374-3.078,1.324-.559,2.659-1.1,3.877-1.662.606-.291,1.235-.509,1.772-.8s1.08-.515,1.576-.736c.995-.445,1.808-.913,2.4-1.168S264.825,342.8,264.825,342.8Z" transform="translate(-243.571 -342.802)" fill="#273552"/>
        </g>
        <g id="Group_97" data-name="Group 97" transform="translate(220.962 483.567)">
          <path id="Path_268" data-name="Path 268" d="M270.9,348.175l-.726.779a12.588,12.588,0,0,1-2.313,1.959,20.554,20.554,0,0,1-4.211,2.156,42.913,42.913,0,0,1-5.872,1.7c-2.172.509-4.528.987-6.916,1.717a18.091,18.091,0,0,0-6.753,3.428,3.629,3.629,0,0,0-1,1.261.368.368,0,0,0,.022.285,1.257,1.257,0,0,0,.462.356,3.869,3.869,0,0,0,.82.323c.122.03.374.11.393.106l.535.079,2.156.315a82.287,82.287,0,0,0,8.7.417c1.489.057,3.008.214,4.5.317a43.124,43.124,0,0,1,4.445.437,8.7,8.7,0,0,1,2.329.753,3.4,3.4,0,0,1,1.839,2.156,3.154,3.154,0,0,1,.1.736l-.024.352-.012.175-.008.085,0,.045c-.014.077.037-.114-.039.187l-.175.5c-.112.22-.25.46-.389.675a6.85,6.85,0,0,1-1.816,1.621,26.223,26.223,0,0,1-7.776,2.779c-1.249.254-2.449.537-3.637.749l-3.472.547a39.37,39.37,0,0,1-6.121.27q-.683-.012-1.322-.028a7.136,7.136,0,0,1-1.239-.212,10.287,10.287,0,0,1-2.085-.624c-1.237-.456-2.13-.934-2.793-1.139l-1-.37s.36.094,1.033.264c.683.144,1.652.506,2.876.866a9.734,9.734,0,0,0,2.061.45,6.786,6.786,0,0,0,1.17.11c.417-.024.85-.049,1.3-.071a55.056,55.056,0,0,0,5.956-.649q1.611-.33,3.35-.69c1.157-.262,2.357-.606,3.586-.917a29.114,29.114,0,0,0,7.16-2.819,5.16,5.16,0,0,0,1.3-1.159,2.418,2.418,0,0,1,.155-.234l.171-.5c-.071.275-.02.063-.035.118v-.069l0-.09.01-.183c.02-.124-.043-.207-.047-.317-.134-.759-1.426-1.286-2.736-1.5-1.355-.232-2.738-.24-4.322-.35-1.448-.077-2.88-.2-4.353-.24a84.435,84.435,0,0,1-8.932-.58l-2.15-.346-.535-.087a5.738,5.738,0,0,1-.647-.177,5.49,5.49,0,0,1-1.163-.486,2.939,2.939,0,0,1-1.131-1.029,2.223,2.223,0,0,1-.169-1.762,5.078,5.078,0,0,1,1.538-2.028,13.92,13.92,0,0,1,1.768-1.292,20.143,20.143,0,0,1,1.92-.976,28.649,28.649,0,0,1,3.83-1.261c2.516-.641,4.906-1.009,7.083-1.412s4.154-.793,5.864-1.3a20.323,20.323,0,0,0,4.247-1.778,14.55,14.55,0,0,0,2.443-1.7C270.618,348.419,270.9,348.175,270.9,348.175Z" transform="translate(-237.501 -348.175)" fill="#273552"/>
        </g>
        <g id="Group_98" data-name="Group 98" transform="translate(218.938 511.092)">
          <path id="Path_269" data-name="Path 269" d="M236.506,369s.614.108,1.674.348c.531.106,1.182.169,1.91.275s1.585.112,2.486.216c1.829.081,3.954.151,6.23.051,1.139-.016,2.309-.12,3.5-.212,1.194-.055,2.388-.268,3.592-.395,1.184-.218,2.4-.327,3.545-.624.58-.124,1.157-.25,1.725-.37.557-.157,1.109-.309,1.65-.464,1.1-.269,2.089-.71,3.076-1.027.919-.441,1.841-.793,2.616-1.245a17.529,17.529,0,0,0,2.056-1.328,9.674,9.674,0,0,0,1.442-1.249c.7-.8,1.133-1.263,1.133-1.263s-.275.545-.822,1.511a10.277,10.277,0,0,1-1.241,1.56,11.881,11.881,0,0,1-1.934,1.749,22.966,22.966,0,0,1-2.614,1.642,26.588,26.588,0,0,1-3.153,1.353,26.194,26.194,0,0,1-3.5,1.047c-1.2.332-2.457.476-3.694.722-1.253.108-2.5.305-3.739.336a35.044,35.044,0,0,1-3.629.043c-1.176.012-2.313-.142-3.385-.226-1.072-.116-2.079-.3-3-.46a28.7,28.7,0,0,1-4.369-1.269C237.063,369.272,236.506,369,236.506,369Z" transform="translate(-236.506 -361.707)" fill="#273552"/>
        </g>
        <g id="Group_99" data-name="Group 99" transform="translate(147.196 274.545)">
          <path id="Path_270" data-name="Path 270" d="M201.236,260.326q2.523-2.072,4.943-4.237c1.613-1.452,3.24-2.9,4.953-4.267l2.648-1.963,2.825-1.751,3.047-1.426,3.265-.936,1.153-.33-.118,1.243-.193,2.038c-.132.665-.248,1.336-.4,2a30.375,30.375,0,0,1-1.261,3.824c-1.009,2.469-2.229,4.794-3.369,7.111-.565,1.159-1.131,2.311-1.644,3.476a36.538,36.538,0,0,0-1.33,3.541,26.032,26.032,0,0,0-.8,3.639l-.155,1.847.037,1.853-.962-.824a7.514,7.514,0,0,0,1.424-.326,5.276,5.276,0,0,0,1.34-.708l.645-.441.588-.551a9.187,9.187,0,0,0,1.113-1.2,20.625,20.625,0,0,0,1.922-2.758c.6-.96,1.121-1.981,1.64-3,1.019-2.054,1.969-4.16,2.937-6.265a49.348,49.348,0,0,1,3.177-6.192c-1.973,4.19-3.133,8.686-5.049,12.957-.474,1.066-.95,2.138-1.526,3.171a21.687,21.687,0,0,1-1.888,3.035,10.484,10.484,0,0,1-1.174,1.408l-.645.667-.759.58a7.043,7.043,0,0,1-1.692.95,9.127,9.127,0,0,1-1.934.482l-.915.222-.049-1.046-.1-2.046c.018-.681.077-1.361.116-2.044a24.517,24.517,0,0,1,.82-3.979,45.655,45.655,0,0,1,3.051-7.351c1.174-2.339,2.394-4.615,3.373-6.955a34.2,34.2,0,0,0,1.263-3.552l.415-1.814.224-1.839,1.033.913-3.023.742-2.921,1.184-2.795,1.538-2.679,1.778c-1.733,1.277-3.5,2.539-5.224,3.859l-2.63,1.942C203.061,259.144,202.141,259.724,201.236,260.326Z" transform="translate(-201.236 -245.416)" fill="#c93"/>
        </g>
        <g id="Group_100" data-name="Group 100" transform="translate(179.626 278.79)">
          <path id="Path_271" data-name="Path 271" d="M218.773,247.5a24.807,24.807,0,0,1,.421,3.116,53.53,53.53,0,0,1-.694,13.6,26,26,0,0,1-.742,3.088,24.266,24.266,0,0,1-.425-3.1,53.173,53.173,0,0,1-.083-6.841,53.877,53.877,0,0,1,.783-6.792A25.549,25.549,0,0,1,218.773,247.5Z" transform="translate(-217.18 -247.503)" fill="#c93"/>
        </g>
        <g id="Group_101" data-name="Group 101" transform="translate(141.608 274.22)">
          <path id="Path_272" data-name="Path 272" d="M216.771,245.256a16.026,16.026,0,0,1-2.561,1.711,19.512,19.512,0,0,1-6.424,2.246c-.631.069-1.259.142-1.89.148a10.873,10.873,0,0,1-1.849-.108,9.1,9.1,0,0,1-3.141-.98,5.126,5.126,0,0,1-1.1-.7,4.137,4.137,0,0,1-.747-.659c-.376-.4-.567-.643-.567-.643l.789.307a11.2,11.2,0,0,0,2.032.6,14.327,14.327,0,0,0,2.87.289c.527.01,1.07-.035,1.625-.069s1.123-.118,1.686-.2c1.135-.14,2.264-.411,3.34-.624l2.958-.694C215.531,245.461,216.771,245.256,216.771,245.256Z" transform="translate(-198.489 -245.256)" fill="#c93"/>
        </g>
        <g id="Group_102" data-name="Group 102" transform="translate(287.217 259.976)">
          <path id="Path_273" data-name="Path 273" d="M270.073,240.433a9.7,9.7,0,0,1,1.489-.732,18.975,18.975,0,0,1,4.255-1.09,36.658,36.658,0,0,1,6.2-.338,19.2,19.2,0,0,1,3.535.366,32.759,32.759,0,0,1,3.523.928,42.787,42.787,0,0,1,6.532,2.886,22.932,22.932,0,0,1,5.038,3.686,7.158,7.158,0,0,1,2.225,3.812,3.484,3.484,0,0,1-.191,1.656s.02-.146.059-.427a3.936,3.936,0,0,0-.1-1.182,7.252,7.252,0,0,0-2.461-3.358,26.1,26.1,0,0,0-5.071-3.253,41.636,41.636,0,0,0-6.412-2.663,31.357,31.357,0,0,0-3.377-.97,17.846,17.846,0,0,0-3.346-.423,47.4,47.4,0,0,0-6.082-.039,23.157,23.157,0,0,0-4.255.635A13.264,13.264,0,0,0,270.073,240.433Z" transform="translate(-270.073 -238.254)" fill="#915e30"/>
        </g>
        <g id="Group_103" data-name="Group 103" transform="translate(286.997 255.316)">
          <path id="Path_274" data-name="Path 274" d="M269.965,237.5l1.934-.342c1.241-.189,3-.521,5.134-.767,1.068-.122,2.229-.244,3.464-.323a31.552,31.552,0,0,1,3.9-.073,34.392,34.392,0,0,1,4.176.389,34.91,34.91,0,0,1,4.215,1.041,46.86,46.86,0,0,1,7.786,3.368,28.614,28.614,0,0,1,6,4.349,13.166,13.166,0,0,1,3.041,4.255,7.126,7.126,0,0,1,.439,1.4c.061.33.1.5.1.5a8.08,8.08,0,0,0-.747-1.8,14.031,14.031,0,0,0-3.293-3.855,31.891,31.891,0,0,0-6.035-3.922,45.679,45.679,0,0,0-7.656-3.139,34.9,34.9,0,0,0-4.04-1.078,32.675,32.675,0,0,0-4.027-.454c-1.32-.092-2.6-.094-3.818-.1s-2.372.059-3.442.118Z" transform="translate(-269.965 -235.962)" fill="#915e30"/>
        </g>
        <g id="Group_104" data-name="Group 104" transform="translate(285.671 250.695)">
          <path id="Path_275" data-name="Path 275" d="M269.313,235.436l.492-.224a11.427,11.427,0,0,1,1.43-.541,23.582,23.582,0,0,1,5.4-.9,49.383,49.383,0,0,1,7.721.153,64.609,64.609,0,0,1,8.757,1.361,43.113,43.113,0,0,1,4.351,1.241,24.643,24.643,0,0,1,4.044,1.753,53.271,53.271,0,0,1,6.357,4.4,30.575,30.575,0,0,1,3.95,3.765,7.443,7.443,0,0,1,1.143,1.721,7.747,7.747,0,0,0-1.3-1.58,30.862,30.862,0,0,0-4.174-3.411,52.677,52.677,0,0,0-6.444-4.032,34.477,34.477,0,0,0-8.193-2.705,87.191,87.191,0,0,0-8.6-1.442,73.59,73.59,0,0,0-7.6-.509,29.43,29.43,0,0,0-5.354.423A15.124,15.124,0,0,0,269.313,235.436Z" transform="translate(-269.313 -233.691)" fill="#915e30"/>
        </g>
      </g>
      <g id="Group_129" data-name="Group 129" transform="translate(154.548 336.868)">
        <g id="Group_108" data-name="Group 108" transform="translate(218.119 179.851)">
          <g id="Group_107" data-name="Group 107">
            <g id="Group_106" data-name="Group 106">
              <path id="Path_276" data-name="Path 276" d="M263.55,498.5a9.609,9.609,0,0,1-7.717,11.192h0a9.612,9.612,0,0,1-11.2-7.713L213.185,328.572a9.617,9.617,0,0,1,7.715-11.2h0a9.615,9.615,0,0,1,11.2,7.717Z" transform="translate(-213.025 -317.214)" fill="#b59254"/>
            </g>
          </g>
        </g>
        <g id="Group_113" data-name="Group 113" transform="translate(95.603 137.289)">
          <g id="Group_110" data-name="Group 110" transform="translate(38.873 0)">
            <g id="Group_109" data-name="Group 109" transform="translate(0)">
              <rect id="Rectangle_19" data-name="Rectangle 19" width="71.602" height="4.069" transform="translate(0 69.626) rotate(-76.506)" fill="#151414"/>
            </g>
          </g>
          <g id="Group_112" data-name="Group 112" transform="translate(0 52.185)">
            <g id="Group_111" data-name="Group 111">
              <path id="Path_277" data-name="Path 277" d="M153.061,468.021a9.612,9.612,0,0,0,7.111,11.588h0a9.617,9.617,0,0,0,11.592-7.107L205,333.807a9.622,9.622,0,0,0-7.109-11.6h0a9.619,9.619,0,0,0-11.59,7.113Z" transform="translate(-152.794 -321.945)" fill="#b59254"/>
            </g>
          </g>
        </g>
        <g id="Group_120" data-name="Group 120" transform="translate(120.973 181.965)">
          <g id="Group_115" data-name="Group 115" transform="translate(9.579 16.306)">
            <g id="Group_114" data-name="Group 114">
              <path id="Path_278" data-name="Path 278" d="M169.976,326.27" transform="translate(-169.976 -326.27)" fill="none" stroke="#383535" stroke-miterlimit="10" stroke-width="2"/>
            </g>
          </g>
          <g id="Group_117" data-name="Group 117" transform="translate(10.666 18.086)">
            <g id="Group_116" data-name="Group 116">
              <path id="Path_279" data-name="Path 279" d="M170.51,327.145" transform="translate(-170.51 -327.145)" fill="none" stroke="#383535" stroke-miterlimit="10" stroke-width="2"/>
            </g>
          </g>
          <g id="Group_119" data-name="Group 119">
            <g id="Group_118" data-name="Group 118">
              <path id="Path_280" data-name="Path 280" d="M209.723,537.5a9.61,9.61,0,0,1-8.358,10.722h0a9.613,9.613,0,0,1-10.726-8.354l-25.3-210.812a9.62,9.62,0,0,1,8.358-10.73h0a9.618,9.618,0,0,1,10.726,8.36Z" transform="translate(-165.267 -318.254)" fill="#d8ae64"/>
            </g>
          </g>
        </g>
        <g id="Group_123" data-name="Group 123" transform="translate(0 166.647)">
          <g id="Group_122" data-name="Group 122">
            <g id="Group_121" data-name="Group 121">
              <path id="Path_281" data-name="Path 281" d="M106.061,518.274a9.612,9.612,0,0,0,7.111,11.588h0a9.617,9.617,0,0,0,11.592-7.107L173.8,322.584a9.622,9.622,0,0,0-7.109-11.6h0A9.621,9.621,0,0,0,155.1,318.1Z" transform="translate(-105.794 -310.723)" fill="#d8ae64"/>
            </g>
          </g>
        </g>
        <g id="Group_128" data-name="Group 128" transform="translate(16.42 0)">
          <g id="Group_125" data-name="Group 125" transform="translate(12.475)">
            <g id="Group_124" data-name="Group 124">
              <path id="Path_282" data-name="Path 282" d="M249.132,271c5.085,19.324,8.136,58.48,13.73,78.313,5.594,21.867,23.9,45.259,46.276,51.361,7.2,1.8,14.019,1.91,20.839,1.643-30.56-2.852-43.562-17.259-54.4-47.071-6.611-17.8-12.2-57.294-12.2-76.618,0-27.46-20.341-37.631-45.259-42.208-12.2-2.543-60.006-7.628-72.21-7.628-11.893,0-20.166,3.623-25.9,9.483C161.912,236.882,244.288,250.418,249.132,271Z" transform="translate(-119.999 -228.796)" fill="#d6c9cc"/>
            </g>
          </g>
          <g id="Group_127" data-name="Group 127" transform="translate(0 9.384)">
            <g id="Group_126" data-name="Group 126">
              <path id="Path_283" data-name="Path 283" d="M348.708,398.1c-4.434,0-8.543-.187-12.39-.545-6.82.266-13.635.159-20.839-1.644C293.1,389.8,274.8,366.412,269.2,344.545c-5.594-19.832-8.645-58.989-13.73-78.313-4.843-20.585-87.22-34.122-129.133-32.725-12.9,13.183-12.941,37.735-12.237,58.151,1.017,31.02,2.034,50.852,11.188,80.347,8.645,28.477,41.19,48.31,70.176,51.869,29.494,3.56,62.548,9.662,91.534,5.085,22.884-3.56,42.716-10.17,64.583-17.29,3.56-1.526,13.126-3.346,14.314-8.814C367.377,396.063,348.708,398.1,348.708,398.1Z" transform="translate(-113.866 -233.409)" fill="#b5a6a8"/>
            </g>
          </g>
        </g>
      </g>
      <g id="Group_130" data-name="Group 130" transform="translate(623.466 133.448)">
        <path id="Path_284" data-name="Path 284" d="M336.323,131.483v31.171l27.46,2.49V134.155Z" transform="translate(-336.323 -126.007)" fill="#ffca55"/>
        <rect id="Rectangle_20" data-name="Rectangle 20" width="4.863" height="12.34" transform="translate(10.158)" fill="#ffeac0"/>
      </g>
      <g id="Group_131" data-name="Group 131" transform="translate(663.25 98.589)">
        <path id="Path_285" data-name="Path 285" d="M355.881,114.109v55.158l50.384,4.569V116.977Z" transform="translate(-355.881 -109.114)" fill="#ff9b57"/>
        <path id="Path_286" data-name="Path 286" d="M364.8,112.8v15.734h7.046V111.653Z" transform="translate(-346.656 -111.653)" fill="#ffeac0"/>
      </g>
      <g id="Group_132" data-name="Group 132" transform="translate(647.335 181.544)">
        <path id="Path_287" data-name="Path 287" d="M348.057,154.431V204.54l41.107,4.151V157.037Z" transform="translate(-348.057 -150.372)" fill="#ff5a5a"/>
        <rect id="Rectangle_21" data-name="Rectangle 21" width="7.437" height="15.643" transform="translate(14.322)" fill="#ffeac0"/>
      </g>
    </g>
  </g>
</svg>
