<svg xmlns="http://www.w3.org/2000/svg" width="1011.857" height="745.855" viewBox="0 0 1011.857 745.855">
  <g id="Group_167" data-name="Group 167" transform="translate(-397.275 -109.341)">
    <g id="Group_140" data-name="Group 140" transform="translate(887.785 127.482)">
      <g id="Group_139" data-name="Group 139" transform="translate(0 4.009)">
        <g id="Path_288" data-name="Path 288" transform="translate(-638.803 -120.418)" fill="#fff" stroke-miterlimit="10">
          <path d="M 807.8247680664062 309.1460571289062 C 768.375732421875 271.6054992675781 724.9656982421875 251.2122650146484 695.3237915039062 240.6867218017578 C 678.315673828125 234.6473388671875 663.9342651367188 231.1433715820312 654.8646850585938 229.2674102783203 C 648.721435546875 227.9967041015625 644.1700439453125 227.2850341796875 641.5538330078125 226.9231567382812 C 644.1129760742188 220.0199890136719 651.9244384765625 199.0364379882812 660.1461181640625 177.8217468261719 C 666.0088500976562 162.6938781738281 670.9287719726562 150.4130706787109 674.769287109375 141.3204956054688 C 677.041259765625 135.9415283203125 678.9522094726562 131.6412200927734 680.4490966796875 128.5390319824219 C 682.2153930664062 124.8787078857422 683.0660400390625 123.591926574707 683.4083862304688 123.1552963256836 C 684.6824340820312 122.9487152099609 688.5692749023438 122.418098449707 694.8709106445312 122.418098449707 C 699.5502319335938 122.418098449707 704.6011962890625 122.7061309814453 709.8836059570312 123.2742233276367 C 716.50830078125 123.9866561889648 723.5125122070312 125.1436309814453 730.70166015625 126.7129364013672 C 749.0537719726562 130.7190704345703 768.6911010742188 137.3997497558594 789.0682983398438 146.5694427490234 C 806.890625 154.5897216796875 822.727294921875 163.5550689697266 836.1383666992188 173.2164154052734 C 846.85302734375 180.9352874755859 856.0509643554688 189.1123504638672 863.4766845703125 197.5204772949219 C 870.0747680664062 204.9914703369141 874.0225219726562 211.265380859375 876.1724243164062 215.2129364013672 C 877.665283203125 217.9541473388672 878.5211791992188 219.9827880859375 878.9450073242188 221.0917510986328 L 807.8247680664062 309.1460571289062 Z" stroke="none"/>
          <path d="M 694.870361328125 124.4180908203125 C 689.751953125 124.4180908203125 686.2814331054688 124.7745056152344 684.5706176757812 125.00537109375 C 684.1122436523438 125.7464294433594 683.2725830078125 127.2471313476562 681.8776245117188 130.1874694824219 C 680.3569946289062 133.3926086425781 678.4368286132812 137.75244140625 676.1704711914062 143.1459350585938 C 672.328857421875 152.2882080078125 667.4505004882812 164.4931945800781 661.6710815429688 179.4218444824219 C 654.3538208007812 198.3226928710938 647.41357421875 216.8943328857422 644.2880249023438 225.3042297363281 C 646.9852905273438 225.7223052978516 650.6950073242188 226.3625793457031 655.269775390625 227.3088531494141 C 664.4006958007812 229.197509765625 678.8778686523438 232.7245941162109 695.9930419921875 238.8020172119141 C 725.4240112304688 249.2526397705078 768.3478393554688 269.37451171875 807.626953125 306.2078857421875 L 876.6502685546875 220.7497711181641 C 876.1657104492188 219.6054534912109 875.4076538085938 217.9721984863281 874.2890625 215.9375610351562 C 872.1614990234375 212.0678405761719 868.2584228515625 205.9158477783203 861.74658203125 198.5835571289062 C 854.4082641601562 190.3206787109375 845.3251342773438 182.2787170410156 834.7495727539062 174.6810607910156 C 821.4952392578125 165.158935546875 805.8496704101562 156.3144226074219 788.24755859375 148.3932495117188 C 767.9967041015625 139.2803955078125 748.491943359375 132.6435241699219 730.275146484375 128.6669311523438 C 723.1559448242188 127.1128540039062 716.2233276367188 125.9675598144531 709.6697387695312 125.2627563476562 C 704.4581298828125 124.7022705078125 699.4791259765625 124.4180908203125 694.8706665039062 124.4180908203125 L 694.870361328125 124.4180908203125 M 694.8709106445312 120.4180908203125 C 711.2242431640625 120.4180908203125 743.5310668945312 123.8845520019531 789.8890380859375 144.7455444335938 C 868.9910888671875 180.3425598144531 881.2025756835938 221.4796447753906 881.2025756835938 221.4796447753906 L 808.012451171875 312.0966796875 C 731.3372192382812 238.0332183837891 638.8030395507812 228.5937652587891 638.8030395507812 228.5937652587891 C 638.8030395507812 228.5937652587891 677.78759765625 122.8630065917969 682.543701171875 121.2769165039062 C 682.543701171875 121.2769165039062 686.7308959960938 120.4180603027344 694.8709106445312 120.4180908203125 Z" stroke="none" fill="#a0c6f4"/>
        </g>
        <path id="Path_289" data-name="Path 289" d="M645.493,177.728s90.987,9.192,147.051,60.658" transform="translate(-631.906 -61.34)" fill="none" stroke="#2a1e17" stroke-linecap="round" stroke-linejoin="round" stroke-width="1"/>
        <path id="Path_290" data-name="Path 290" d="M684.18,209.045l33.943-66,34.887,68.83Z" transform="translate(-592.026 -97.094)" fill="#a0c6f4"/>
        <path id="Path_291" data-name="Path 291" d="M687.43,208.581l33.944-66,34.886,68.83Z" transform="translate(-588.675 -97.573)" fill="none" stroke="#2a1e17" stroke-linecap="round" stroke-linejoin="round" stroke-width="1"/>
      </g>
      <path id="Path_292" data-name="Path 292" d="M671.74,118.444S773.758,127.634,837.174,203" transform="translate(-604.85 -118.444)" fill="none" stroke="#2a1e17" stroke-linecap="round" stroke-linejoin="round" stroke-width="1"/>
    </g>
    <path id="Path_293" data-name="Path 293" d="M702.116,290.98c-5.6-4.119-9.279-6.88-9.279-6.88,1.554-2.072,26.1-28.225,40.319-49.3C733.156,234.8,704.409,292.665,702.116,290.98Z" transform="translate(304.684 128.983)" fill="#2a1e17"/>
    <path id="Path_294" data-name="Path 294" d="M526.12,168.592c2.736,4.557,3.95,2.734,11.848,2.126s19.139,5.164,23.087,14.886,2.736,11.239.609,12.455-17.317,3.036-17.924,6.074" transform="translate(132.821 60.734)" fill="none" stroke="#2a1e17" stroke-linecap="round" stroke-linejoin="round" stroke-width="1"/>
    <path id="Path_295" data-name="Path 295" d="M557.524,422.006" transform="translate(165.195 321.968)" fill="#eaecec"/>
    <g id="Group_141" data-name="Group 141" transform="translate(657.16 191.978)">
      <path id="Path_296" data-name="Path 296" d="M643.229,418.125l-7.077-11.961-25.109,41.848,6.591,5.07Z" transform="translate(-436.794 113.659)" fill="#f9865f"/>
      <path id="Path_297" data-name="Path 297" d="M549.275,376.952s-13.01-21.153-7.429-31.519l41.507,4.441Z" transform="translate(-509.561 51.054)" fill="#f9865f"/>
      <path id="Path_298" data-name="Path 298" d="M547.591,378.7l2.486,5.713-7.666,29.9a10.236,10.236,0,0,0,3.227,10.29h0L583.6,368.492a13.051,13.051,0,0,0-1.927-16.872l-8.483-7.88Z" transform="translate(-507.877 49.309)"/>
      <path id="Path_299" data-name="Path 299" d="M544.644,204.456c11.887-.282,26.949-1.036,23.938-10.073s-14.309-31.633-39.917-24.854c0,0-9.037,7.53,2.258,21.088S544.644,204.456,544.644,204.456Z" transform="translate(-525.243 -131.566)" fill="#2a1e33"/>
      <path id="Path_300" data-name="Path 300" d="M600.661,432.6s-20.29-59.906-3.122-86.21c14.171-21.708,60.465,13.6,66.809,18.359l33.123-59.823s-7.646-10.721-26.42-21.218-96.332-41.931-132.78,15.575C524.8,320.536,524.6,411.736,550.432,446.69Z" transform="translate(-521.095 -31.173)" fill="#7595ec"/>
      <path id="Path_301" data-name="Path 301" d="M569.507,395.177s-20.29-59.906-3.122-86.21c14.172-21.708,60.465,13.6,66.809,18.359" transform="translate(-489.941 6.251)" fill="none" stroke="#2a1e17" stroke-linecap="round" stroke-linejoin="round" stroke-width="1"/>
      <path id="Path_302" data-name="Path 302" d="M650.478,285c-15.065,15.859-59.73,93.111-69.774,130.034-13.434,49.388-8.381,90.349,65.459,170.554L681.854,533.6s-25.1-38.109-20.41-74.031c6.777-51.968,43.761-102.357,62.473-134.319Z" transform="translate(-474.101 -11.245)" fill="#7595ec"/>
      <path id="Path_303" data-name="Path 303" d="M614.883,288.305l59.375,46.6L692,307.926Z" transform="translate(-432.836 -7.837)" fill="#2a1e17"/>
      <path id="Path_304" data-name="Path 304" d="M782.8,264.18q13.888,2.976,21.164,10.581c4.85,5.071,2.644,7.717.881,9.259s-8.6-.219-14.549-5.51S782.8,264.18,782.8,264.18Z" transform="translate(-259.735 -32.706)" fill="#ff8a66"/>
      <path id="Path_305" data-name="Path 305" d="M692.837,284.1c1.554-2.072,26.1-28.225,40.319-49.3,0,0,42.961,48.138,47.62,49.691,1.732.577,12.264.439,25.345.3,22.1-.229,51.486-.451,57.989,2.8,10.351,5.177,16.564,7.764,19.151,15.01s3.609,11.98-2.587,12.423c-7.246.518-11.9-8.8-11.9-8.8s-5.922,3.576-21.223,9.316c0,0-55.051,21.373-91.85,11.038C745.648,323.76,692.837,284.1,692.837,284.1Z" transform="translate(-352.476 -62.995)" fill="#f9865f"/>
      <path id="Path_306" data-name="Path 306" d="M531.521,164.908c-4.726,1.8-7.6,3.948-4.862,8.505s3.95,2.734,11.848,2.126,19.139,5.164,23.087,14.886,2.736,11.239.609,12.455-17.317,3.036-17.924,6.074,6.156,12,20.13,11.4l3.341-.607s29.389,28.7,33.641,32.955,35.507,25.428,52.725,29.732c13.087,3.274,39.6-.948,55.532-4.056,7.738-1.509,12.981-2.758,12.981-2.758s-11.958-21.537-14.387-54.648c0,0-28.6,4.6-47.611,8.765,0,0-44.356-24.728-65.924-35.664,0,0-18.834-23.089-27.644-26.127S537.9,162.477,531.521,164.908Z" transform="translate(-524.878 -136.065)" fill="#f9865f"/>
      <path id="Path_307" data-name="Path 307" d="M620.7,247.737c7.738-1.509,12.981-2.758,12.981-2.758s-14.464-18.229-16.893-51.342c0,0-6.539,7.047-4.506,25.8C614.835,243.007,620.7,247.737,620.7,247.737Z" transform="translate(-435.925 -105.426)" fill="#2a1e17"/>
      <path id="Path_308" data-name="Path 308" d="M640.617,194.772s.4,40.463,11.241,57.343l3.889-1.556s-51.088,59.764-67.609,98.816c-2.705,6.391,106.068,75.871,122.138,74.9,0,0,53-80.885,71.121-104.862l19.48,15.1s38.209-38.692,40.262-52.435c0,0-36.9-44.906-67.1-58.056s-57.173-35.672-89.606-35.061C656.36,189.481,640.617,194.772,640.617,194.772Z" transform="translate(-460.458 -110.267)" fill="#fff7c9"/>
      <path id="Path_309" data-name="Path 309" d="M702.753,272.572l-19.479-15.1,3.1-8.455Z" transform="translate(-362.335 -48.334)" fill="#2a1e17"/>
      <path id="Path_310" data-name="Path 310" d="M754.716,199.694c-3.41,10.609-13.261,41.3-24.249,45.085s-22.425-.969-22.425-.969l-11.7,5.989c-1.306,3.918-10.542,7.291-22.469,7.75-8.832.341-14.21-11-11.6-19.21,1.2-3.769,5.684-22.354,5.684-22.354s9.47-34.854,18.184-42.053,16.9-14.326,40.158-4.925C761.913,183.4,754.716,199.694,754.716,199.694Z" transform="translate(-384.666 -135.458)" fill="#f9865f"/>
      <path id="Path_311" data-name="Path 311" d="M681.46,215.949c-1.564,6.515-8.339,19.543-12.768,17.2s-5.993-8.339-2.866-19.8,5.731-37.52,14.59-42.209,12.768.78,12.768.78-3.907-19.019,7.557-21.625c0,0,3.907-1.826,2.344,11.2,0,0,4.431-11.984,18.761-10.422S741.126,172.7,741.126,172.7s1.042-5.471,7.557-5.471,16.415,9.64,14.07,20.323c0,0,16.671-5.217,25.536,8.079s7.817,27.88-13.55,33.611c-22.339,6-22.146-20.063-25.534-23.45s-7.037-7.295-19.543-2.606-25.534-9.119-25.534-9.119-2.086,16.675-4.169,18.239-6.253,3.647-5.211-4.169,2.346-7.035,1.564-9.119-4.31-8.662-11.726-2.868C676.248,202.661,681.46,215.949,681.46,215.949Z" transform="translate(-382.01 -150.202)" fill="#2a1e33"/>
      <path id="Path_312" data-name="Path 312" d="M677.506,197.15c-4.969-4.173-8.416-11.531-4.041-18.887s11.529-8.349,13.716-5.567,3.032,7.476.977,13.04" transform="translate(-374.511 -128.485)" fill="none" stroke="#2a1e33" stroke-linecap="round" stroke-linejoin="round" stroke-width="1"/>
      <path id="Path_313" data-name="Path 313" d="M617.082,447.01l2.486,5.713-7.667,29.9a10.231,10.231,0,0,0,3.227,10.29h0l37.959-56.113a13.049,13.049,0,0,0-1.929-16.872l-8.481-7.88Z" transform="translate(-436.241 119.73)"/>
      <path id="Path_314" data-name="Path 314" d="M684.363,166.956s-2.906-9.454-11.619-11.943" transform="translate(-373.189 -145.243)" fill="none" stroke="#2a1e33" stroke-linecap="round" stroke-linejoin="round" stroke-width="1"/>
      <line id="Line_12" data-name="Line 12" y1="146.899" x2="105.161" transform="translate(126.488 89.355)" fill="none" stroke="#2a1e17" stroke-linecap="round" stroke-linejoin="round" stroke-width="1"/>
      <path id="Path_315" data-name="Path 315" d="M661.915,199.261c-3.788,4.927-5.514,26.125,11.917,27.5s28.576-6.281,28.576-6.281" transform="translate(-386.921 -99.629)" fill="none" stroke="#2a1e17" stroke-linecap="round" stroke-linejoin="round" stroke-width="1"/>
      <path id="Path_316" data-name="Path 316" d="M546.015,165.9s12.021,15.912,13.909,21.578" transform="translate(-503.829 -134.02)" fill="none" stroke="#2a1e17" stroke-linecap="round" stroke-linejoin="round" stroke-width="1"/>
      <path id="Path_317" data-name="Path 317" d="M767.636,276.75s8.03,6.612,24.025-1.944c5.8-3.1,1.669-10.445-5.672-8.611s-16.058-.916-16.058-.916" transform="translate(-275.369 -31.572)" fill="none" stroke="#2a1e17" stroke-linecap="round" stroke-linejoin="round" stroke-width="1"/>
      <path id="Path_318" data-name="Path 318" d="M784.158,264.632s7.705,8.989,7.494,14.33" transform="translate(-258.337 -32.24)" fill="none" stroke="#2a1e17" stroke-linecap="round" stroke-linejoin="round" stroke-width="1"/>
      <path id="Path_319" data-name="Path 319" d="M728.323,269.185s6.966-9.283,15.871-9.919" transform="translate(-315.895 -37.772)" fill="none" stroke="#2a1e17" stroke-linecap="round" stroke-linejoin="round" stroke-width="1"/>
      <path id="Path_320" data-name="Path 320" d="M583.668,211.323s4.068-12.669,17.1-15" transform="translate(-465.014 -102.655)" fill="none" stroke="#2a1e17" stroke-linecap="round" stroke-linejoin="round" stroke-width="1"/>
      <path id="Path_321" data-name="Path 321" d="M627.966,298.385l-15.544,29.74s-51.261,86.748-33.869,142.792" transform="translate(-473.999 2.554)" fill="none" stroke="#2a1e17" stroke-linecap="round" stroke-linejoin="round" stroke-width="1"/>
      <path id="Path_322" data-name="Path 322" d="M623.418,468.717l50.436-86.46s66.1-95.875,72.869-109.4L770.052,229.7" transform="translate(-424.037 -68.253)" fill="none" stroke="#2a1e17" stroke-linecap="round" stroke-linejoin="round" stroke-width="1"/>
      <path id="Path_323" data-name="Path 323" d="M590.993,271.068S680.682,336.46,707.28,339.61" transform="translate(-457.463 -25.606)" fill="none" stroke="#2a1e17" stroke-linecap="round" stroke-linejoin="round" stroke-width="1"/>
      <path id="Path_324" data-name="Path 324" d="M613.953,191.812s-.081,41.036,10.981,57.861" transform="translate(-433.795 -107.308)" fill="none" stroke="#2a1e17" stroke-linecap="round" stroke-linejoin="round" stroke-width="1"/>
      <path id="Path_325" data-name="Path 325" d="M731.709,231.6c-2.817,16.915-40.262,52.435-40.262,52.435" transform="translate(-353.909 -66.296)" fill="none" stroke="#2a1e17" stroke-linecap="round" stroke-linejoin="round" stroke-width="1"/>
    </g>
    <path id="Path_326" data-name="Path 326" d="M706.911,256.121" transform="translate(319.192 150.964)" fill="#2a1e17"/>
    <path id="Path_327" data-name="Path 327" d="M789.613,315.892" transform="translate(404.446 212.58)" fill="#f9865f"/>
    <circle id="Ellipse_1" data-name="Ellipse 1" cx="5.326" cy="5.326" r="5.326" transform="translate(750.268 557.28)" fill="#2a1e17"/>
    <g id="Group_142" data-name="Group 142" transform="translate(646.501 323.215)">
      <path id="Path_328" data-name="Path 328" d="M821.247,399.392,818.3,379.021l17.376,11.552-9.093,1.983Z" transform="translate(-212.479 -45.558)" fill="none" stroke="#2a1e17" stroke-linecap="round" stroke-linejoin="round" stroke-width="1"/>
      <path id="Path_329" data-name="Path 329" d="M552.524,220.9c-32.926-29.051-87.333,43.391,111.758,273.971C779.13,627.886,869.367,639.815,881.589,593.54c21.931-83.022-57.268-104.008-27.8-71.49,42.853,47.283,164.741,57.272,255.568,13.148,89.622-43.538,34.535-111.151,28.97-115.095" transform="translate(-519.994 -214.823)" fill="none" stroke="#2a1e17" stroke-linecap="round" stroke-linejoin="round" stroke-width="1"/>
      <circle id="Ellipse_2" data-name="Ellipse 2" cx="5.326" cy="5.326" r="5.326" transform="translate(585.471 314.634)" fill="#2a1e17"/>
      <line id="Line_13" data-name="Line 13" y1="88.978" x2="157.865" transform="translate(513.3 274.45)" fill="none" stroke="#2a1e17" stroke-linecap="round" stroke-linejoin="round" stroke-width="1"/>
      <circle id="Ellipse_3" data-name="Ellipse 3" cx="5.326" cy="5.326" r="5.326" transform="translate(30.488 5.059)" fill="#2a1e17"/>
    </g>
    <circle id="Ellipse_4" data-name="Ellipse 4" cx="11.426" cy="11.426" r="11.426" transform="translate(806.686 212.22)" fill="#ff6d66"/>
    <g id="Ellipse_5" data-name="Ellipse 5" transform="translate(605.758 136.498)" fill="none" stroke="#a0c6f4" stroke-miterlimit="10" stroke-width="4">
      <circle cx="5.023" cy="5.023" r="5.023" stroke="none"/>
      <circle cx="5.023" cy="5.023" r="3.023" fill="none"/>
    </g>
    <circle id="Ellipse_6" data-name="Ellipse 6" cx="5.023" cy="5.023" r="5.023" transform="translate(1278.781 750.291)" fill="#fad8b0"/>
    <g id="Group_143" data-name="Group 143" transform="translate(1136.839 386.462)">
      <path id="Path_330" data-name="Path 330" d="M818.658,356.611l-54-25.339a5.605,5.605,0,0,1,.124-10.205l100.457-44.2a5.612,5.612,0,0,1,4.468-.02l69,29.618Z" transform="translate(-761.438 -214.601)" fill="#2a1e33"/>
      <path id="Path_331" data-name="Path 331" d="M787.966,304.7c.138,22.344,3.345,83.278,3.345,83.278l120.052-50.148-2.693-84.795a7.291,7.291,0,0,0-10.311-6.4l-103.367,47.1A11.968,11.968,0,0,0,787.966,304.7Z" transform="translate(-734.091 -245.966)" fill="#c6cbcb"/>
      <path id="Path_332" data-name="Path 332" d="M789.613,387.916l120.052-50.148-2.693-84.795s-.8-9.257-10.311-6.4" transform="translate(-732.393 -245.906)" fill="none" stroke="#2a1e17" stroke-linecap="round" stroke-linejoin="round" stroke-width="1"/>
      <line id="Line_14" data-name="Line 14" y1="19.158" x2="8.105" transform="translate(115.327 61.908)" fill="none" stroke="#2a1e17" stroke-linecap="round" stroke-linejoin="round" stroke-width="1"/>
      <line id="Line_15" data-name="Line 15" y1="19.158" x2="8.105" transform="translate(123.433 61.908)" fill="none" stroke="#2a1e17" stroke-linecap="round" stroke-linejoin="round" stroke-width="1"/>
    </g>
    <circle id="Ellipse_7" data-name="Ellipse 7" cx="5.023" cy="5.023" r="5.023" transform="translate(627.411 666.466)" fill="#ff6d66"/>
    <circle id="Ellipse_8" data-name="Ellipse 8" cx="6.979" cy="6.979" r="6.979" transform="translate(1048.952 689.394)" fill="#ff6d66"/>
    <g id="Group_144" data-name="Group 144" transform="translate(671.538 745.68)">
      <path id="Path_333" data-name="Path 333" d="M545.272,423.128a149.064,149.064,0,0,0,63.424,13.6,2.856,2.856,0,0,1,2.837,3.221l-4.383,34.781a2.859,2.859,0,0,1-2.315,2.457c-8.889,1.669-44.721,6.586-71.523-16.141a2.854,2.854,0,0,1-.892-2.912l8.857-33.156A2.857,2.857,0,0,1,545.272,423.128Z" transform="translate(-532.322 -422.846)" fill="#fff7dc"/>
      <path id="Path_334" data-name="Path 334" d="M540.25,428.018s15.483,21.757,21.005,24.872,35.329-14.651,35.329-14.651" transform="translate(-524.15 -417.515)" fill="none" stroke="#2a1e17" stroke-linecap="round" stroke-linejoin="round" stroke-width="1"/>
      <line id="Line_16" data-name="Line 16" x2="16.266" y2="16.72" transform="translate(51.702 32.342)" fill="none" stroke="#2a1e17" stroke-linecap="round" stroke-linejoin="round" stroke-width="1"/>
      <line id="Line_17" data-name="Line 17" x1="19.026" y2="5.172" transform="translate(10.079 29.12)" fill="none" stroke="#2a1e17" stroke-linecap="round" stroke-linejoin="round" stroke-width="1"/>
    </g>
    <rect id="Rectangle_22" data-name="Rectangle 22" width="18.172" height="18.172" transform="translate(1164.375 334.515)" fill="#ffe1c0"/>
    <path id="Path_335" data-name="Path 335" d="M781.692,341.086l5.4,9.355,5.4,9.355h-21.6l5.4-9.355Z" transform="translate(385.145 238.551)" fill="#a0c6f4"/>
    <g id="Group_145" data-name="Group 145" transform="translate(730.083 111.922)">
      <path id="Path_336" data-name="Path 336" d="M561.156,164.043l1.407-42.471c-.148-3.966,1.466-5.229,3.909-5.77,11.537-2.551,46.608-10.37,84.754.906,4.929,1.458,4.771,4.066,4.691,6.415l-1.363,40.491c-.1,2.973-3.207,5.126-6.674,4.618-11.137-1.631-26.285-2.134-41.667-2-15.894.134-30.057,1.316-39.968,3.223C562.464,170.18,561.044,167.361,561.156,164.043Z" transform="translate(-561.15 -110.782)" fill="none" stroke="#2a1e17" stroke-linecap="round" stroke-linejoin="round" stroke-width="1"/>
      <path id="Path_337" data-name="Path 337" d="M567.473,147.142l22.2-25.989,24.577,24.255C605.779,142.648,567.473,147.142,567.473,147.142Z" transform="translate(-554.632 -100.092)" fill="none" stroke="#2a1e17" stroke-linecap="round" stroke-linejoin="round" stroke-width="1"/>
      <path id="Path_338" data-name="Path 338" d="M585.106,134.368,603.055,120l15.125,10.8.568,16.877-22.674-1.085" transform="translate(-536.454 -101.276)" fill="none" stroke="#2a1e17" stroke-linecap="round" stroke-linejoin="round" stroke-width="1"/>
      <ellipse id="Ellipse_9" data-name="Ellipse 9" cx="3.707" cy="4.371" rx="3.707" ry="4.371" transform="matrix(0.101, -0.995, 0.995, 0.101, 13.439, 21.956)" fill="none" stroke="#2a1e17" stroke-linecap="round" stroke-linejoin="round" stroke-width="1"/>
    </g>
    <g id="Group_146" data-name="Group 146" transform="translate(1099.85 714.517)">
      <path id="Path_339" data-name="Path 339" d="M802.775,409.952l14.894,27.5c1.568,2.464,1.013,3.865-.339,5.116-6.381,5.912-25.751,23.915-54.173,30.932-3.672.906-4.541-.808-5.366-2.329l-14.186-26.229c-1.042-1.925.132-4.448,2.522-5.414,7.681-3.1,17.49-8.416,27.214-14.216,10.045-5.993,18.6-12.008,24.19-16.9C799.664,406.541,801.611,407.8,802.775,409.952Z" transform="translate(-743.224 -407.501)" fill="none" stroke="#2a1e17" stroke-linecap="round" stroke-linejoin="round" stroke-width="1"/>
      <path id="Path_340" data-name="Path 340" d="M784.425,413l-4.442,24.762-24.628-6.269C761.764,430.095,784.425,413,784.425,413Z" transform="translate(-730.719 -401.833)" fill="none" stroke="#2a1e17" stroke-linecap="round" stroke-linejoin="round" stroke-width="1"/>
      <path id="Path_341" data-name="Path 341" d="M774.382,425.792l-6.062,15.8-13.62-1.235-6.635-10.51,14.806-7.74" transform="translate(-738.234 -392.446)" fill="none" stroke="#2a1e17" stroke-linecap="round" stroke-linejoin="round" stroke-width="1"/>
      <ellipse id="Ellipse_10" data-name="Ellipse 10" cx="3.217" cy="2.728" rx="3.217" ry="2.728" transform="translate(56.803 30.004) rotate(-24.564)" fill="none" stroke="#2a1e17" stroke-linecap="round" stroke-linejoin="round" stroke-width="1"/>
    </g>
    <g id="Group_149" data-name="Group 149" transform="translate(1085.727 173.832)">
      <g id="Group_147" data-name="Group 147" transform="translate(0 54.477)">
        <path id="Path_342" data-name="Path 342" d="M737.442,187.256l60.51,46.314a2.99,2.99,0,0,0,4.222-.6l9.137-12.382a2.99,2.99,0,0,0-.538-4.108l-59.656-47.733a2.988,2.988,0,0,0-4.287.581l-9.99,13.8A2.987,2.987,0,0,0,737.442,187.256Z" transform="translate(-736.27 -168.091)" fill="#fff" stroke="#2a1e17" stroke-linecap="round" stroke-linejoin="round" stroke-width="1"/>
        <path id="Path_343" data-name="Path 343" d="M739.053,182.743l14.674,10.3,8.659-10.334-14.677-12.241Z" transform="translate(-733.401 -165.645)" fill="#ff6d66"/>
        <path id="Path_344" data-name="Path 344" d="M749,188.651l14.693,11.658,7.876-9.689-14.791-12Z" transform="translate(-723.149 -157.241)" fill="#fad8b0"/>
        <path id="Path_345" data-name="Path 345" d="M758.667,196.74l14.674,10.3,6.989-8.981-13.9-11.632Z" transform="translate(-713.181 -149.193)" fill="#a0c6f4"/>
      </g>
      <g id="Group_148" data-name="Group 148" transform="translate(121.876)">
        <path id="Path_346" data-name="Path 346" d="M796.315,150.16,810.1,266.033a4.577,4.577,0,0,0,5.167,3.995l23.347-3.2a4.576,4.576,0,0,0,3.934-4.978L831.233,145.4a4.577,4.577,0,0,0-5.219-4.086L800.2,145.091A4.576,4.576,0,0,0,796.315,150.16Z" transform="translate(-796.282 -141.267)" fill="#fff" stroke="#2a1e17" stroke-linecap="round" stroke-linejoin="round" stroke-width="1"/>
        <path id="Path_347" data-name="Path 347" d="M799.77,148.814l4.37,27.1,20.589-1.533L822.491,145.2Z" transform="translate(-792.686 -137.211)" fill="#ff6d66"/>
        <path id="Path_348" data-name="Path 348" d="M802.657,166.528l2.9,28.576,19.046-1.7-2.623-29.051Z" transform="translate(-789.71 -117.471)" fill="#91ba83"/>
        <path id="Path_349" data-name="Path 349" d="M804.261,185.787l4.37,27.1,17.322-1.92-2.077-27.678Z" transform="translate(-788.056 -97.945)" fill="#fad8b0"/>
      </g>
      <path id="Path_350" data-name="Path 350" d="M781.575,165.172,819.759,277.41a3.639,3.639,0,0,0,4.679,2.252l23.917-8.609a3.644,3.644,0,0,0,2.238-4.525L814.739,153.182A3.641,3.641,0,0,0,810,150.865l-26.245,9.72A3.642,3.642,0,0,0,781.575,165.172Z" transform="translate(-689.768 -131.608)" fill="#fff" stroke="#2a1e17" stroke-linecap="round" stroke-linejoin="round" stroke-width="1"/>
      <path id="Path_351" data-name="Path 351" d="M785.295,162.993l9.91,25.6,19.82-5.781-8.258-28.079Z" transform="translate(-685.732 -127.383)" fill="#a0c6f4"/>
      <path id="Path_352" data-name="Path 352" d="M791.953,179.361l8.775,27.349L819,201.083,810.4,173.213Z" transform="translate(-678.869 -108.335)" fill="#f9865f"/>
      <path id="Path_353" data-name="Path 353" d="M797.494,197.9l9.91,25.6,16.544-5.48-7.787-26.641Z" transform="translate(-673.156 -89.611)" fill="#fad8b0"/>
    </g>
    <g id="Group_150" data-name="Group 150" transform="translate(685.811 349.165)">
      <rect id="Rectangle_23" data-name="Rectangle 23" width="215.092" height="48.354" rx="5.484" transform="translate(0 0)" fill="#7595ec"/>
      <rect id="Rectangle_24" data-name="Rectangle 24" width="112.475" height="7.358" rx="1.812" transform="translate(22.917 14.236)" fill="#fff"/>
      <line id="Line_18" data-name="Line 18" x2="178.699" transform="translate(23.968 31.126)" fill="none" stroke="#2a1e17" stroke-linecap="round" stroke-linejoin="round" stroke-width="1"/>
    </g>
    <g id="Group_151" data-name="Group 151" transform="translate(589.643 238.509)">
      <path id="Rectangle_25" data-name="Rectangle 25" d="M0,0H6.263a1.7,1.7,0,0,1,1.7,1.7V11.945a1.7,1.7,0,0,1-1.7,1.7H0a0,0,0,0,1,0,0V0A0,0,0,0,1,0,0Z" transform="matrix(0.674, 0.738, -0.738, 0.674, 28.709, 19.699)" fill="#91ba83"/>
      <rect id="Rectangle_26" data-name="Rectangle 26" width="25.242" height="17.4" rx="0.98" transform="matrix(-0.674, -0.738, 0.738, -0.674, 17.024, 30.372)" fill="none" stroke="#2a1e17" stroke-linecap="round" stroke-linejoin="round" stroke-width="1"/>
    </g>
    <g id="Group_152" data-name="Group 152" transform="translate(547.209 312.465)">
      <rect id="Rectangle_27" data-name="Rectangle 27" width="18.017" height="16.45" transform="translate(10.777 10.585)" fill="#ff6d66"/>
      <path id="Path_354" data-name="Path 354" d="M481.879,209.53v10.585H471.1" transform="translate(-471.103 -209.53)" fill="none" stroke="#2a1e17" stroke-linecap="round" stroke-linejoin="round" stroke-width="1"/>
    </g>
    <g id="Group_153" data-name="Group 153" transform="translate(1140.727 126.703)">
      <rect id="Rectangle_28" data-name="Rectangle 28" width="18.017" height="16.45" transform="translate(10.777 10.585)" fill="#fad8b0"/>
      <path id="Path_355" data-name="Path 355" d="M774.129,118.06v10.585H763.352" transform="translate(-763.352 -118.06)" fill="none" stroke="#2a1e17" stroke-linecap="round" stroke-linejoin="round" stroke-width="1"/>
    </g>
    <g id="Group_155" data-name="Group 155" transform="translate(454.991 205.618)">
      <path id="Path_356" data-name="Path 356" d="M626.957,183.821C440.191,106.4,296.41,255.506,648.47,483.83c27.723,17.979,70.235,24.287,70.235,24.287" transform="translate(-418.029 -150.472)" fill="none" stroke="#2a1e17" stroke-linecap="round" stroke-linejoin="round" stroke-width="1"/>
      <circle id="Ellipse_11" data-name="Ellipse 11" cx="5.326" cy="5.326" r="5.326" transform="translate(31.828 33.229)" fill="#2a1e17"/>
      <g id="Group_154" data-name="Group 154">
        <path id="Path_357" data-name="Path 357" d="M427.3,164.35l5.828-5.6,13.4,7.666,6.734,20.779L432.7,178.593Z" transform="translate(-424.037 -155.025)" fill="none" stroke="#2a1e17" stroke-linecap="round" stroke-linejoin="round" stroke-width="1"/>
        <path id="Path_358" data-name="Path 358" d="M434.786,160.648l-5.828,5.6-3.264-3.963,5.6-5.362Z" transform="translate(-425.694 -156.918)" fill="none" stroke="#2a1e17" stroke-linecap="round" stroke-linejoin="round" stroke-width="1"/>
        <line id="Line_19" data-name="Line 19" x1="13.374" y1="14.693" transform="translate(15.852 17.482)" fill="none" stroke="#2a1e17" stroke-linecap="round" stroke-linejoin="round" stroke-width="1"/>
      </g>
    </g>
    <g id="Group_156" data-name="Group 156" transform="translate(516.534 603.369)">
      <path id="Path_359" data-name="Path 359" d="M456.053,360.023l14.519,74.8a2.986,2.986,0,0,0,3.554,2.354l15.053-3.2a2.992,2.992,0,0,0,2.325-3.43l-12.937-75.3a2.989,2.989,0,0,0-3.593-2.413l-16.635,3.692A2.992,2.992,0,0,0,456.053,360.023Z" transform="translate(-455.998 -352.772)" fill="#fff" stroke="#2a1e17" stroke-linecap="round" stroke-linejoin="round" stroke-width="1"/>
      <path id="Path_360" data-name="Path 360" d="M458.351,358.791l4.141,17.442,13.336-1.982-2.853-18.9Z" transform="translate(-453.573 -350.112)" fill="#ff6d66"/>
      <path id="Path_361" data-name="Path 361" d="M461.112,370.106l3.252,18.472,12.322-2.019-3.1-18.794Z" transform="translate(-450.727 -337.316)" fill="#fad8b0"/>
      <path id="Path_362" data-name="Path 362" d="M463.069,382.579l4.141,17.442,11.189-2.078-2.675-17.926Z" transform="translate(-448.709 -324.686)" fill="#a0c6f4"/>
    </g>
    <g id="Group_160" data-name="Group 160" transform="translate(902.438 781.673)">
      <path id="Path_363" data-name="Path 363" d="M660.71,456.993l61.35-16.424,2.34,6.648-62.04,16.1Z" transform="translate(-630.873 -440.569)" fill="none" stroke="#2a1e17" stroke-linecap="round" stroke-linejoin="round" stroke-width="1"/>
      <g id="Group_157" data-name="Group 157" transform="translate(19.596 7.844)">
        <line id="Line_20" data-name="Line 20" x2="1.77" y2="5.571" transform="translate(1.729)" fill="none" stroke="#2a1e17" stroke-linecap="round" stroke-linejoin="round" stroke-width="1"/>
        <line id="Line_21" data-name="Line 21" y1="1.778" x2="5.177" transform="translate(0 1.854)" fill="none" stroke="#2a1e17" stroke-linecap="round" stroke-linejoin="round" stroke-width="1"/>
      </g>
      <g id="Group_158" data-name="Group 158" transform="translate(15.504 29.115)">
        <line id="Line_22" data-name="Line 22" x2="3.338" y2="10.508" transform="translate(2.843)" fill="none" stroke="#2a1e17" stroke-linecap="round" stroke-linejoin="round" stroke-width="1"/>
        <line id="Line_23" data-name="Line 23" y1="2.929" x2="9.218" transform="translate(0 3.734)" fill="none" stroke="#2a1e17" stroke-linecap="round" stroke-linejoin="round" stroke-width="1"/>
      </g>
      <g id="Group_159" data-name="Group 159" transform="translate(0 11.773)">
        <line id="Line_24" data-name="Line 24" x2="4.354" y2="13.916" transform="translate(4.328)" fill="none" stroke="#2a1e17" stroke-linecap="round" stroke-linejoin="round" stroke-width="1"/>
        <line id="Line_25" data-name="Line 25" y1="4.124" x2="12.919" transform="translate(0 4.543)" fill="none" stroke="#2a1e17" stroke-linecap="round" stroke-linejoin="round" stroke-width="1"/>
      </g>
    </g>
    <g id="Group_164" data-name="Group 164" transform="translate(446.13 109.677)">
      <path id="Path_364" data-name="Path 364" d="M460.155,131.647l-38.824-17.525,1.608-4.445,39.046,17.984Z" transform="translate(-421.331 -109.677)" fill="none" stroke="#2a1e17" stroke-linecap="round" stroke-linejoin="round" stroke-width="0.671"/>
      <g id="Group_161" data-name="Group 161" transform="translate(38.596 26.395)">
        <line id="Line_26" data-name="Line 26" y1="3.643" x2="1.447" transform="translate(1.003)" fill="none" stroke="#2a1e17" stroke-linecap="round" stroke-linejoin="round" stroke-width="0.671"/>
        <line id="Line_27" data-name="Line 27" x1="3.443" y1="1.275" transform="translate(0 1.217)" fill="none" stroke="#2a1e17" stroke-linecap="round" stroke-linejoin="round" stroke-width="0.671"/>
      </g>
      <g id="Group_162" data-name="Group 162" transform="translate(48.453 13.388)">
        <line id="Line_28" data-name="Line 28" y1="6.873" x2="2.729" transform="translate(1.724)" fill="none" stroke="#2a1e17" stroke-linecap="round" stroke-linejoin="round" stroke-width="0.671"/>
        <line id="Line_29" data-name="Line 29" x1="6.029" y1="2.394" transform="translate(0 2.227)" fill="none" stroke="#2a1e17" stroke-linecap="round" stroke-linejoin="round" stroke-width="0.671"/>
      </g>
      <g id="Group_163" data-name="Group 163" transform="translate(47.56 26.143)">
        <line id="Line_30" data-name="Line 30" y1="9.073" x2="3.649" transform="translate(2.531)" fill="none" stroke="#2a1e17" stroke-linecap="round" stroke-linejoin="round" stroke-width="0.671"/>
        <line id="Line_31" data-name="Line 31" x1="8.458" y1="3.345" transform="translate(0 3.067)" fill="none" stroke="#2a1e17" stroke-linecap="round" stroke-linejoin="round" stroke-width="0.671"/>
      </g>
    </g>
    <g id="Group_165" data-name="Group 165" transform="translate(534.768 372.98)">
      <path id="Path_365" data-name="Path 365" d="M534.884,325.86c-27.364-19.7-54.25-50.319-42.457-81.769,0,0,18.871-12.579,48.749,3.146l29.876,15.725Z" transform="translate(-439.618 -239.327)" fill="#fad8b0"/>
      <g id="Path_366" data-name="Path 366" transform="translate(-462.82 -236.91)" fill="#fff" stroke-miterlimit="10">
        <path d="M 546.3829956054688 456.73095703125 C 544.6681518554688 455.955322265625 541.32666015625 454.3819274902344 536.9906005859375 452.0397644042969 C 531.0968017578125 448.8561706542969 522.1063842773438 443.5597229003906 512.745849609375 436.4067687988281 C 502.2527770996094 428.3883666992188 493.4404296875 419.7174072265625 486.5535583496094 410.634765625 C 482.4778137207031 405.2595825195312 479.0404052734375 399.678955078125 476.3368530273438 394.0478820800781 C 473.3696594238281 387.8677368164062 471.2128295898438 381.4725646972656 469.9263305664062 375.0400390625 C 468.6404113769531 368.6103515625 468.267578125 361.4971008300781 468.8182067871094 353.8978881835938 C 469.3211364746094 346.9569396972656 470.605224609375 339.4570922851562 472.6347961425781 331.6065979003906 C 476.0650634765625 318.3381958007812 481.6578369140625 303.8457336425781 489.2578430175781 288.5317993164062 C 496.0302734375 274.8853759765625 503.1727905273438 263.1065063476562 507.9720764160156 255.6282501220703 C 509.4234619140625 253.3667449951172 510.7526550292969 251.3532104492188 511.91552734375 249.6244201660156 C 509.8110046386719 261.8670043945312 512.8155517578125 274.6539306640625 520.8964233398438 287.7506408691406 C 530.7733764648438 303.7583312988281 546.094970703125 316.6570434570312 557.208984375 324.6589050292969 C 573.3822631835938 336.30322265625 584.6243286132812 341.5713500976562 601.5884399414062 347.8548278808594 L 546.3829956054688 456.73095703125 Z" stroke="none"/>
        <path d="M 509.78955078125 255.5763854980469 C 509.5897827148438 255.8856506347656 509.3878173828125 256.1993408203125 509.1830444335938 256.5185852050781 C 504.4048461914062 263.9684753417969 497.2949829101562 275.7004699707031 490.558837890625 289.2845458984375 C 483.017333984375 304.4926147460938 477.47119140625 318.8744812011719 474.0745239257812 332.0305480957031 C 469.8790893554688 348.280029296875 468.9783325195312 362.6515502929688 471.3971557617188 374.7458190917969 C 472.6578369140625 381.0490112304688 474.7716064453125 387.3182983398438 477.6798706054688 393.3795471191406 C 480.3359375 398.9151306152344 483.7151489257812 404.4045715332031 487.7236938476562 409.6953735351562 C 494.5197143554688 418.6653442382812 503.2250366210938 427.2362365722656 513.5978393554688 435.1699829101562 C 522.8760986328125 442.2665405273438 531.79345703125 447.5245971679688 537.640380859375 450.6859130859375 C 541.0485229492188 452.5286254882812 543.83837890625 453.892822265625 545.698486328125 454.7641296386719 L 599.4915161132812 348.6735534667969 C 583.563232421875 342.6962890625 572.0260009765625 337.1750793457031 556.33251953125 325.876220703125 C 545.1077270507812 317.7945556640625 529.6267700195312 304.7565307617188 519.619873046875 288.5382995605469 C 512.6852416992188 277.29931640625 509.40185546875 266.2650146484375 509.78955078125 255.5763854980469 M 515.6283569335938 241.6730346679688 C 503.8350830078125 273.1229248046875 530.7216186523438 303.7401428222656 558.08544921875 323.4415893554688 C 574.5049438476562 335.26318359375 585.9976806640625 340.5434875488281 603.6884765625 347.030029296875 L 547.0782470703125 458.6766357421875 C 547.0782470703125 458.6766357421875 479.4627075195312 430.3705444335938 468.4554443359375 375.3341979980469 C 457.4481811523438 320.2978210449219 515.6283569335938 241.6730346679688 515.6283569335938 241.6730346679688 Z" stroke="none" fill="#fad8b0"/>
      </g>
      <path id="Path_367" data-name="Path 367" d="M483.447,264.171s3.383,31.584,34.967,48.505" transform="translate(-445.937 -213.717)" fill="none" stroke="#2a1e17" stroke-linecap="round" stroke-linejoin="round" stroke-width="1"/>
      <line id="Line_32" data-name="Line 32" x2="31.584" y2="16.92" transform="translate(89.398 110.239)" fill="none" stroke="#2a1e17" stroke-linecap="round" stroke-linejoin="round" stroke-width="1"/>
      <path id="Path_368" data-name="Path 368" d="M485.668,286.389s10.152,22.559,42.865,37.224" transform="translate(-443.647 -190.814)" fill="none" stroke="#2a1e17" stroke-linecap="round" stroke-linejoin="round" stroke-width="1"/>
      <path id="Path_369" data-name="Path 369" d="M472.894,288.055s1.127,23.688,16.919,31.584" transform="translate(-456.815 -189.096)" fill="none" stroke="#2a1e17" stroke-linecap="round" stroke-linejoin="round" stroke-width="1"/>
      <path id="Path_370" data-name="Path 370" d="M490.686,247.508s-2.926,30.422,43.093,69.918" transform="translate(-438.513 -230.894)" fill="none" stroke="#2a1e17" stroke-linecap="round" stroke-linejoin="round" stroke-width="1"/>
      <path id="Path_371" data-name="Path 371" d="M499,250.294s14.663-1.127,36.1,14.665" transform="translate(-429.905 -228.041)" fill="none" stroke="#2a1e17" stroke-linecap="round" stroke-linejoin="round" stroke-width="1"/>
      <path id="Path_372" data-name="Path 372" d="M465.111,298.111c-.944,15.087.942,69.774,80.144,104.66" transform="translate(-464.977 -178.73)" fill="none" stroke="#2a1e17" stroke-linecap="round" stroke-linejoin="round" stroke-width="1"/>
    </g>
    <g id="Group_166" data-name="Group 166" transform="translate(906.372 461.936)">
      <path id="Path_373" data-name="Path 373" d="M731.126,283.13l-33.594,67.329s22.786,8.385,4.974,34.5c0,0,42.114,17.465,69.671-27.9S731.126,283.13,731.126,283.13Z" transform="translate(-596.849 -283.13)" fill="#91ba83"/>
      <g id="Path_374" data-name="Path 374" transform="translate(-647.955 -245.599)" fill="#fff" stroke-miterlimit="10">
        <path d="M 705.3427124023438 452.9066467285156 C 696.9300537109375 452.9066467285156 688.20703125 451.2296447753906 679.4140014648438 447.9217224121094 C 674.578857421875 446.102783203125 669.631103515625 443.7548217773438 664.7080688476562 440.9430847167969 C 659.843017578125 438.1644287109375 654.8782958984375 434.8620910644531 649.9338989257812 431.1166687011719 L 714.3161010742188 324.4620056152344 L 752.811279296875 348.7023010253906 L 752.9187622070312 348.7699890136719 L 753.0361328125 348.8186340332031 C 753.1218872070312 348.8542175292969 755.1766357421875 349.6990966796875 758.6519775390625 350.5431213378906 C 761.8358154296875 351.3163757324219 766.884521484375 352.2381591796875 772.8562622070312 352.2385559082031 C 772.857177734375 352.2385559082031 772.8591918945312 352.2385559082031 772.8600463867188 352.2385559082031 C 783.8362426757812 352.2385559082031 798.2457885742188 349.1680908203125 811.5078125 336.7067260742188 L 761.2437744140625 422.6988220214844 C 761.0740966796875 422.9508361816406 759.8157958984375 424.7932739257812 757.5573120117188 427.4203491210938 C 755.32666015625 430.0150756835938 751.6349487304688 433.92919921875 746.7152099609375 437.8411254882812 C 741.2046508789062 442.2228698730469 735.3040771484375 445.7119140625 729.1774291992188 448.2112731933594 C 721.54150390625 451.3263549804688 713.5237426757812 452.9060974121094 705.3468017578125 452.9066467285156 C 705.3458251953125 452.9066467285156 705.34375 452.9066467285156 705.3427124023438 452.9066467285156 Z" stroke="none"/>
        <path d="M 714.810302734375 326.5458068847656 L 651.9187622070312 430.7311096191406 C 661.3857421875 437.7733764648438 670.8028564453125 443.0793151855469 679.942138671875 446.5173645019531 C 688.56640625 449.7616577148438 697.11376953125 451.4066162109375 705.346923828125 451.4066162109375 C 713.3078002929688 451.4066162109375 721.1154174804688 449.87255859375 728.5527954101562 446.8470458984375 C 734.5382080078125 444.4122009277344 740.3078002929688 441.0089111328125 745.7013549804688 436.7317199707031 C 750.5337524414062 432.8995056152344 754.1636352539062 429.0606384277344 756.3577270507812 426.5150146484375 C 758.5155639648438 424.0115356445312 759.7479858398438 422.2315063476562 759.9733276367188 421.8998718261719 L 805.9732055664062 343.202880859375 C 794.3171997070312 351.5127868652344 782.3399047851562 353.738525390625 772.8563232421875 353.738525390625 C 761.120849609375 353.738525390625 752.8096313476562 350.3485412597656 752.4615478515625 350.2042236328125 L 752.2269287109375 350.1069641113281 L 714.810302734375 326.5458068847656 M 823.2813110351562 319.5369873046875 L 762.5159301757812 423.4948425292969 C 762.5159301757812 423.4948425292969 742.1454467773438 454.4066467285156 705.346923828125 454.4066467285156 C 689.2495727539062 454.4066467285156 670.0120849609375 448.4944458007812 647.955078125 431.4923095703125 L 713.8218994140625 322.378173828125 L 753.6105346679688 347.4329833984375 C 753.6105346679688 347.4329833984375 761.5831909179688 350.7385559082031 772.8563232421875 350.7385559082031 C 787.4986572265625 350.7385559082031 807.7116088867188 345.1662292480469 823.2813110351562 319.5369873046875 Z" stroke="none" fill="#96bd89"/>
      </g>
      <path id="Path_375" data-name="Path 375" d="M697.531,316.283s25.057,8.846,4.974,34.5" transform="translate(-596.849 -248.954)" fill="none" stroke="#2a1e17" stroke-linecap="round" stroke-linejoin="round" stroke-width="1"/>
      <path id="Path_376" data-name="Path 376" d="M680.005,319.785s34.129,31.263,53.024,31.052,41.05-4.71,54.12-27.248" transform="translate(-614.916 -245.344)" fill="none" stroke="#2a1e17" stroke-linecap="round" stroke-linejoin="round" stroke-width="1"/>
      <path id="Path_377" data-name="Path 377" d="M682.066,339.7s23.428,20.8,49.624,14.121" transform="translate(-612.791 -224.814)" fill="none" stroke="#2a1e17" stroke-linecap="round" stroke-linejoin="round" stroke-width="1"/>
      <path id="Path_378" data-name="Path 378" d="M694.182,355.007s12.293,9.212,29.474.5" transform="translate(-600.301 -209.035)" fill="none" stroke="#2a1e17" stroke-linecap="round" stroke-linejoin="round" stroke-width="1"/>
      <path id="Path_379" data-name="Path 379" d="M666.341,361.319s28.361,28.2,73.005,9.6" transform="translate(-629.002 -202.528)" fill="none" stroke="#2a1e17" stroke-linecap="round" stroke-linejoin="round" stroke-width="1"/>
      <path id="Path_380" data-name="Path 380" d="M673.94,347.773s11.572,8.274,18.82,10.916" transform="translate(-621.168 -216.492)" fill="none" stroke="#2a1e17" stroke-linecap="round" stroke-linejoin="round" stroke-width="1"/>
      <path id="Path_381" data-name="Path 381" d="M716.914,292.753s25.893,8.469,28.995,42.634" transform="translate(-576.868 -273.21)" fill="none" stroke="#2a1e17" stroke-linecap="round" stroke-linejoin="round" stroke-width="1"/>
      <path id="Path_382" data-name="Path 382" d="M727.5,313.543s11.921,18.446-8.227,36.895" transform="translate(-574.438 -251.778)" fill="none" stroke="#2a1e17" stroke-linecap="round" stroke-linejoin="round" stroke-width="1"/>
      <path id="Path_383" data-name="Path 383" d="M649.137,381.985s65.018,55.684,112.2-9.429" transform="translate(-646.737 -190.944)" fill="none" stroke="#2a1e17" stroke-linecap="round" stroke-linejoin="round" stroke-width="1"/>
    </g>
    <line id="Line_33" data-name="Line 33" x2="15.157" transform="translate(439.469 440.922)" fill="none" stroke="#ff6d66" stroke-linecap="round" stroke-linejoin="round" stroke-width="1"/>
    <line id="Line_34" data-name="Line 34" x2="15.157" transform="translate(1283.803 258.618)" fill="none" stroke="#ff6d66" stroke-linecap="round" stroke-linejoin="round" stroke-width="1"/>
    <line id="Line_35" data-name="Line 35" x2="15.157" transform="translate(877.336 154.624)" fill="none" stroke="#fad8b0" stroke-miterlimit="10" stroke-width="1"/>
    <line id="Line_36" data-name="Line 36" x2="14.918" y2="2.68" transform="translate(1312.741 337.234)" fill="none" stroke="#fad8b0" stroke-miterlimit="10" stroke-width="1"/>
    <line id="Line_37" data-name="Line 37" x2="15.157" transform="translate(717.346 715.431)" fill="none" stroke="#a0c6f4" stroke-linecap="round" stroke-linejoin="round" stroke-width="1"/>
    <circle id="Ellipse_12" data-name="Ellipse 12" cx="5.023" cy="5.023" r="5.023" transform="translate(1340.373 521.465)" fill="#91ba83"/>
    <circle id="Ellipse_13" data-name="Ellipse 13" cx="5.023" cy="5.023" r="5.023" transform="translate(397.275 280.555)" fill="#91ba83"/>
    <circle id="Ellipse_14" data-name="Ellipse 14" cx="5.326" cy="5.326" r="5.326" transform="translate(1398.48 844.544)" fill="#2a1e17"/>
  </g>
</svg>
